<?xml version="1.0" encoding="utf-8"?>
<!-- Generator: Adobe Illustrator 19.0.0, SVG Export Plug-In . SVG Version: 6.00 Build 0)  -->
<svg version="1.1" id="Layer_1" xmlns="http://www.w3.org/2000/svg" xmlns:xlink="http://www.w3.org/1999/xlink" x="0px" y="0px"
	 viewBox="-95 111.3 108.9 78.7" style="enable-background:new -95 111.3 108.9 78.7;" xml:space="preserve">
<style type="text/css">
	.st0{display:none;}
	.st1{display:inline;fill:#7E7E7E;}
	.st2{fill:#FFFFFF;}
</style>
<g id="Layer_1_1_" class="st0">
	<path class="st1" d="M9.4,184.3c-11.8,0.8-23.1,0.2-35,0.5c-5.6,0.1-9.8,0.3-16.1,0.4c-5.6,0.1-11.6-0.2-16.2-0.2
		c-5.8,0-11.5,0-17.6,0.1c-5.2,0.1-11.1,0.7-16.6-0.1c-0.1-0.3,0.4-0.7,0.7-1c0.8-0.7,2.8-3.1,3.8-3.1c1.9-0.1,3.8,0.3,5.9,0.5
		c6.4,0.5,12.9-0.5,19.8-0.1c2.9,0.2,5.8,0.8,8.7,1c2.9,0.2,5.8,0.1,8.9,0c5.6-0.1,11.3,0,17.1-0.2c6.8-0.2,17.3,0,25.6-0.8
		c1.2-0.1,2.8-0.3,4.1-0.3c1.3,0,3,0,3.7,0.2C7.7,181.5,8.1,183.3,9.4,184.3 M4.7,179.4c-3.7-0.3-7.9,0.7-11.3,0.8
		c-4.9,0.1-9.7,0-14.5,0.1c-9.6,0.2-18.7,0.6-27.8,0.4c-2.3,0-4.6,0.1-6.8-0.2c-2.2-0.3-4.4-0.7-6.7-0.8c-8.2-0.3-16,0.8-24.1-0.3
		c0.7-1.1,1.6-1.9,2.6-2.8c7,0.9,16.7,1.5,25.3,1c4.2-0.3,8.5-0.3,12.8-0.8c4.5-0.5,8.9-0.4,13.3-0.5c3.5-0.1,7.4-0.4,11.5-0.5
		c6.3-0.2,13.2,0.1,20,0.5c1,0.1,2.1,0,2.7,0.2C2.9,176.9,3.9,178.7,4.7,179.4 M2.2,122c0.1,0,0.1,0,0.1,0.1
		c-0.1,19,2.7,35.1,2.6,55.2c-0.5,0.1-1.7-1-2.2-1.7c0.4-4.2,0.1-9.9,0.1-14.5c0-8.7-1.2-16.6-2.2-24.4c-0.2-1.8-0.7-3.7-0.9-5.7
		c-0.2-1.8-0.4-4.9,0.1-6.2C0.3,123.7,1.6,123.3,2.2,122 M-81.9,123.6c13.4-0.3,26.3,0.8,39.8,0.5c13.8-0.3,26.8,0.4,40.2,1
		c-0.1,8.8,1.8,16.6,2.6,24.5c0.7,8,0.6,15.6,0.6,24.9c-4,0.7-8.3,0.5-12.6,0.4c-4.3-0.1-8.7-0.3-13.1,0c-4.4,0.3-9.2,0.4-13.9,0.3
		c-4.5-0.1-9,1-13.4,1.2c-2.6,0.1-5-0.1-7.4,0.1c-7.9,0.6-16.5,0.3-24.2-0.9c0.3-8.9-0.8-17.7,0.2-26c0.5-4.1,0.7-8.3,0.8-12.5
		c0.1-4.3,0.5-8.6,0.4-13.1C-82,123.9-82.1,123.7-81.9,123.6 M6.7,117.7c-0.2,22.1,1.8,43.6,3.5,65.1c0,0.1,0.1,0.1,0.1,0.1
		c-1.4-0.5-2.4-2.5-3.7-3.4c-0.1-4.8,0.2-9.8-0.3-15.1c-0.6-7.6-1-16.4-1.9-23.8c-0.6-4.9-0.2-9.6-0.3-15.1c0-1.4-0.6-4-0.2-5
		C4.2,119.3,6.1,118.4,6.7,117.7 M-88.3,178.4c0.5-3.7-0.1-9.3-0.2-14c-0.3-10.8-0.3-21.4,0.4-32.2c0.2-4.1,0.8-8.4,0.7-12.2
		c0-0.1,0.2-0.3,0.2-0.1c1.3,1.3,2.5,2.8,3.9,4.1c0,8.4-0.7,18.3-1.3,26.6c-0.5,6.8-0.1,13.6,0,20.5c0,1.3,0.2,3.1-0.1,4.3
		c-0.2,0.7-1.1,1.2-1.8,1.9C-87.1,177.7-87.8,178.6-88.3,178.4 M0.7,121.1c0.2,0.7-1.3,1.9-1.9,2.6c-3.6,0.4-7.3-0.2-11.2-0.3
		c-6.4-0.3-13.1-0.3-20.2-0.6c-3.2-0.2-6.3,0.2-9.4,0.2c-13.7,0.2-26.9-0.7-40.9-0.7c-1.3-1.4-2.7-2.6-3.8-4.3
		c4.9-0.9,9.1,0.7,13.5,1.1c8.6,0.8,18,1.2,27.3,1.3c7.6,0.1,15.3-1.4,22.9-1.2C-14.9,119.4-7.2,120.1,0.7,121.1 M-91.9,114.9
		c1.4,0.7,2.3,1.9,3.3,3.1c-0.9,9-1.5,19.3-1.7,29.1c-0.2,11.4,0.6,23.1,0.5,33.3c-1.1,0.9-2.3,2.4-3.3,2.9
		c0.5-11.1,0.6-21.9,0.3-33.3c-0.1-5.8,0.2-11.2,0.3-16.6C-92.5,127.5-91.7,121.5-91.9,114.9 M-90.3,114.5c0-0.1,0-0.1,0.1-0.1
		c5.5,0,11.1,1.1,16.9,1.5c6.3,0.5,12.2,0.8,18.3,0.6c1,0,2.2,0,3.2,0c4.8,0.2,9.5,0.3,14.2,0.3c4.3,0,8.5-0.2,12.7-0.3
		c4.3-0.1,8.6-0.1,12.8-0.1c5.6,0,10.4,0.3,16.9,0.4c0.2,0.4-0.7,1-1.2,1.5c-0.6,0.6-1,1.3-1.7,1.5c-1.1,0.3-3.7-0.1-5.4-0.4
		c-12.2-2-25.5-1.3-39-0.4c-3.9,0.3-7.6,0.1-11.4-0.1c-7.9-0.3-15.5-0.1-22.7-1.5c-1.6-0.3-3.7-0.7-5.4-0.8
		c-1.9-0.1-4.1,0.7-5.6,0.3C-88.7,116.6-89.1,115-90.3,114.5 M-22.3,115.1c-5.1,0.1-10.2,0.5-15.3,0.5c-2.6,0-5,0-7.6,0.1
		c-2.4,0.1-4.8-0.3-7.2-0.3c-3.3-0.1-6.4,0.2-9.6,0.1c-3.4-0.1-6.8-0.3-10.3-0.6c-4.8-0.4-10.1-1.3-15.2-1.5
		c-2.1-0.1-4.2-0.8-5.6-0.5c-0.6,1.5-0.3,3.2-0.4,4.9c-0.1,1.9-0.2,4-0.3,6c-0.9,11.5-0.9,23.6-0.7,35.2c0.1,4.3-0.2,8.8,0,13.2
		c0.1,4.5-0.7,9.1-0.5,13.6c1.8,0.7,3.9,0.7,6,0.8c7.3,0.4,13.9-0.6,20.5-0.4c4.3,0.1,8.8,0.1,13.3,0c4.6-0.1,9.2,0.3,13.9,0.3
		c12.1,0,27.1-0.5,40-0.5c4.6,0,9.2,0.3,13.5-0.6c-0.3-2.5-0.9-4.9-1.2-7.5c-0.3-2.8-0.2-5.8-0.5-8.9c-0.8-12.1-2-22.8-2.3-34.9
		c-0.2-6.2,0-12.7-0.2-18.6C-1.8,115.5-12,114.8-22.3,115.1 M-16.7,165c-0.5-0.4-1.3,0-1.6,0.5c-0.4,0.5-0.5,1.6-0.1,1.8
		C-17.8,167.2-17,166-16.7,165 M-22.1,165c0,0-0.1-0.6-0.5-0.5C-22.9,164.6-22.1,165-22.1,165 M-30.2,165c-0.1-0.5-1.2-0.2-1.5,0.1
		c-0.4,0.3-0.5,0.9-0.3,1.4c0.2,0.2,0.4,0.4,0.7,0.5C-30.9,166.4-30.1,165.5-30.2,165 M-40.5,165.2c-0.5,0.2-0.2,1-0.2,1
		S-40,165.1-40.5,165.2 M-4.9,165.3c0.6,0.1-1,2.3-1.8,3c-0.8,0.1-1.4-0.4-1.8-1c-0.3,0.3-0.4,0.8-0.8,1c-0.5,0.2-1.3-0.1-1.7-0.6
		c-0.4-0.6-0.1-1.4-0.3-2.1c-1.2,0.1-1.3,1.7-1.6,2.8c-0.2,0.2-0.5,0-0.6-0.1c-0.1-0.2-0.2-0.6-0.2-1c-0.7,1.1-2.6,0.5-2.7-0.9
		c-0.6,0.7-1.8,2.4-2.8,1.1c-0.9,1.7-2.5-0.3-2.1-1.8c-0.3,0.4-0.3,1-0.6,1.5c-0.7,1-2,1.2-2.6-0.2c-0.3,1.3-2.6,1.3-2.8-0.1
		c-0.6,1.2-2.4,1.1-2.7-0.5c-0.3,0.4-0.6,1.3-1.2,1.3c-0.5,0-1-0.6-1.3-1c-0.2,0.3-0.6,0.6-1,0.8c-1-0.1-1.3-0.9-1.6-1.7
		c-0.3,0.4-0.6,0.9-1,1.2c-0.5,0.3-1.5,0.4-1.7-0.2c0.2-0.4,1.1-0.2,1.2-0.6c-0.1-0.5-0.5-0.9-0.8-1.2c-0.6,1.2-1.5,3-3.2,1.9
		c-0.5,0.4-1.4,1-2.2,0.4c-0.4-0.5-0.5-1.3-0.9-1.8c-0.2,0-0.4,0.1-0.7,0.1c0.3,2.6-3.6,2.3-3.7,0.4c0-0.2,0.5-0.3,0.6-0.1
		c0.3,1.6,2.7,1.2,2.4-0.5c-0.1-0.2-0.3-0.3-0.4-0.5c0-0.3,0.2-0.4,0.3-0.6c-0.1-0.9-0.7-1.6-0.5-2.7c0,0,0,0,0,0
		c0.2-0.1,0.5,0,0.7,0.1c-0.1,1.1,0.4,1.6,0.5,2.4c0.3,0.1,0.6,0.2,0.8,0.4c1.2-0.7,1.1-3.4-0.7-3.5c-0.5,0-1,0.2-1.3,0.5
		c0,0,0,0,0,0c0,0,0,0,0,0c-0.4,0.4-0.7,1-0.7,1.7c-0.3,0-0.5-0.1-0.6-0.2c-0.2-2.2,2.1-3,3.9-2.2c1.2,0.7,1.3,3.4,0.1,4.1
		c0.4,0.5,0.5,1.3,0.9,1.9c0.4-0.1,0.6-0.3,0.8-0.5c-0.5-0.7,0.2-2.2,1.2-1.9c0.8,0.3,0.1,1.3-0.2,1.8c1.4,0.9,2.1-1.6,2.2-2.9
		c0.2-0.1,0.5-0.1,0.7,0c0.1,0.2,0.1,0.3,0.1,0.7c0.3,0.6,0.9,0.9,1.2,1.5c0.5-0.6,0.6-1.6,0.8-2.5c-0.3-0.3-1,0.1-1.1-0.4
		c0-0.4,0.7-0.2,1.1-0.2c0.3-0.4-0.1-1.2,0-1.6c0.7-0.4,0.9,0.7,0.8,1.6c0.5,0.3,1.3-0.3,1.7,0c0,0.5-1.1,0.6-1.6,0.6
		c-0.3,1.3-0.4,3,0.6,3.7c1.2-0.8,0.8-2.7,2.9-2.8c0.3,0,0.5,0,0.9,0.2c0.2-0.2,0.6-0.2,0.9,0c0.1,0.5-0.2,0.6-0.3,0.9
		c0,0.9,0.1,1.6,0.5,2c1.2-0.4,0.9-2,1.4-2.9c0.3,0,0.5,0,0.6,0.1c0.2,0.5-0.2,1-0.1,1.6c0,0.7,0.5,1.4,1,1.4c0.7,0,0.7-0.9,1-1.4
		c-0.2-0.5-0.3-1.2,0-1.5c0.4-0.1,0.6,0.1,0.8,0.2c0,1.2-0.1,2.2,0.8,2.8c0.7-0.3,1.1-0.9,1.1-1.8c-0.5-0.3-1.2-0.7-0.8-1.5
		c0.7-0.3,1.4,0,1.4,0.8c0.5,0,0.4-0.6,0.7-0.9c0.3,0,0.6,0,0.7,0.3c-0.2,0.5-0.5,1.5-0.3,2.4c0,0.2,0.3,0.8,0.4,0.8
		c0.1,0,0.7-0.9,0.7-1.1c0.2-0.7,0.2-1.3,0.8-1.7c0.6-0.4,1.4-0.6,2.1-0.3c0.3-0.2,0.5-0.3,0.9-0.1c-0.3,0.9-0.4,3,0.7,3
		c0.7,0,1.1-1.4,1.3-2.2c0.1-0.3-0.1-0.6,0.2-0.7c0.3-0.1,0.5,0.1,0.6,0.2c0,0.5-0.1,0.9-0.2,1.4c0.7-0.4,0.9-1.3,1.8-1.1
		c1,0.2,0.5,1.4,0.8,2.3c0.1,0.3,0.4,0.5,0.6,0.4c0.5-0.1,0.8-1.3,0.8-1.7c0-0.6-0.2-1.4-0.1-2c-0.6,0-1.8,0.3-1.7-0.5
		c0.5-0.1,1.2,0,1.6-0.1c0.2-0.6-0.1-1.1,0-1.7c0.3-0.2,0.5,0,0.8,0.1c0,0.4,0,0.9,0.1,1.4c0.8,0.2,1.7-0.6,2.2-0.2
		c-0.1,0.7-1.2,0.8-2.2,0.9c0.1,1.6-0.2,3.3,1.1,3.9C-6.1,167.1-6,165.7-4.9,165.3 M-63.3,165.4c0,0,0.4-0.3,0.5-0.5
		c0.1-0.1,0-0.2-0.1-0.3c-0.1-0.1-0.2,0.1-0.4,0.3C-63.4,165-63.3,165.4-63.3,165.4 M-65.5,163.5c0.2-0.6,0.9-1.7,0.3-2.3
		C-65.6,161.6-65.5,162.9-65.5,163.5 M-66.4,164.4c-0.3,0.2-0.2,0.7,0.1,0.8C-66.4,164.8-66.2,164.5-66.4,164.4 M-69.4,165.5
		c-1-1.1-2.5,0.6-1.7,2C-70.3,167.1-70,166.2-69.4,165.5 M-60.2,165.6c-0.3,0.6-1.1,1.8-1.6,1.8c-0.8,0.1-1.2-0.8-1.8-1.2
		c-0.4,0.3-1.1,0.2-1.5,0c0.2,1.8,0.1,3.8,0.1,5.3c-0.2,0-0.4,0-0.6-0.1c-0.3-1.4-0.1-3.2-0.5-4.8c-0.6,0.4-1.5,1.7-2.5,1.1
		c-0.3-0.2-0.4-0.7-0.6-1.1c-0.5,0.8-2,2.4-2.6,0.7c-0.5,0.8-1.6,1.2-2.7,1c-1.6-0.3-2.6-2.1-2.4-3.7c0.1-1.3,1.2-2.9,2.3-3.4
		c0.9-0.4,2.6-0.2,2.8,1c-0.7,0.2-0.7-0.5-1-0.6c-0.8-0.3-2,0.5-2.4,1.1c-1.3,1.8-1.2,4.3,0.8,5.1c1.1,0.1,1.6-0.2,2.1-0.8
		c0.4-0.5,0.5-1.3,0.9-1.7c0.5-0.5,1.5-0.8,2.3-0.4c0.2-0.2,0.6-0.3,0.9-0.1c0,0.9-0.2,1.9,0.4,2.6c0.7-0.4,1.2-0.9,1.5-1.6
		c-0.8-0.3-1.2-2,0.3-1.8c0-1.4,0.1-4.3,1.5-3.1c1.4,1-0.8,3.6-0.6,4.8c0.4,0.3,1.1,0.4,1.5,0c-0.5-1.2,1.3-1.9,1.6-1
		c0.2,0.6-0.4,1-0.8,1.3c0.2,0.4,0.6,0.8,1,1c0.8-0.4,1.2-1.6,2-1.8C-59.9,165.1-60.1,165.4-60.2,165.6 M-54.4,166.5
		c-0.4,0.3-1,1.1-1.6,0.6c0.2-0.6,0.7-1,1.1-1.4C-54.6,165.8-54.7,166.3-54.4,166.5 M-53.4,162c0.1,1.1-0.5,2.1-1.2,2.6
		C-55.4,163.7-54.8,161.4-53.4,162 M-55.3,162.1c-0.6,0.8-0.3,2.1,0.2,3c-0.5,0.5-1.3,0.9-1.5,1.6c-0.3,0.8,0.6,1.3,1.2,1.2
		c0.6,0,1.3-0.8,1.5-0.8c0,0,0.3,0.3,0.4,0.3c0.3,0.2,0.7,0.5,1,0.2c-0.2-0.4-0.8-0.4-0.9-0.9c0.5-0.7,1.6-1,1.5-2
		c-1.1-0.1-1.2,1.1-2,1.4c-0.1-0.3-0.3-0.4-0.4-0.7c1-0.7,1.7-1.6,1.7-3.3C-53.2,161.1-54.8,161.3-55.3,162.1 M-61.8,161.5
		c0.2,0,0.3,0.1,0.5,0.1c0.5-0.5,0.9-1.1,1-1.9c0,0,0,0-0.1-0.1c-0.1-0.1-0.4-0.1-0.6-0.2C-61.1,160.1-61.6,160.8-61.8,161.5
		 M-63,132.3c-0.1,0.1-0.1,0.2-0.2,0.2c-0.1,0.3,0.2,0.5,0.2,0.8c0.3,0.4,0.5,0.9,0.7,1.3c0.1,0,0.1,0.1,0.1,0.1
		c0.2,0.4,0.5,0.7,0.7,1.1c0.2,0.1,0.3,0.4,0.4,0.5c0.1,0.2,0.3,0.4,0.5,0.7c0.3,0.6,0.8,1,1.1,1.5c0,0,0.1,0,0.1,0.1
		c0.1,0.2,0.3,0.3,0.4,0.6c0.2,0.1,0.2,0.3,0.3,0.5c0.1,0.1,0.3,0.2,0.3,0.4c0.1,0,0.1,0,0.1,0.1c0.1,0.1,0.2,0.3,0.3,0.4
		c0.2,0.3,0.5,0.5,0.7,0.8c0.1,0.2,0.1,0.3,0.1,0.5c0,0.2,0,0.4,0,0.6c0,0,0,0,0,0.1c0,0.2,0,0.3,0,0.5c0,0,0,0,0,0.1
		c0,1.9,0.1,4.1,0,5.9c0,0,0,0,0,0.1c-0.1,0.3,0,0.7-0.1,1c0.1,0-0.1,0.1,0,0.1c-0.1,0.6,0,1.7-0.1,2.2c0.1,0.1,0,0.3,0,0.3
		c0.1,0.2,0,0.2,0,0.4c-0.1,0.3,0.1,0.8,0,1.1c0,0,0.1,0,0,0.1c0,0-0.1,0,0,0.1c0,0.2-0.1,0.4,0.1,0.6c0.2,0.1,0.6,0.2,0.9,0.1
		c0.4,0,0.8-0.1,1.2-0.1c0.2,0.1,0.7,0,1.1,0.1c0.1-0.1,0.2,0,0.3-0.1c0.1-0.7,0.1-1.4,0-2.2c0.1-0.1,0.1-0.3,0.1-0.4
		c0.1-0.1,0-0.4,0.1-0.5c0-0.2,0-0.4,0.1-0.6c-0.1-0.6,0.1-1.5,0-2c0.1-0.4,0-1.2,0-1.5c0,0-0.1,0,0-0.1c0-0.1,0.1,0,0-0.1
		c-0.1-0.6-0.2-1.3-0.1-2c-0.1-0.3,0.1-0.7,0-0.9c0,0,0.1,0,0.1,0c0.1-1-0.3-2.2,0-3.2c0-0.1,0-0.2,0-0.3c0,0,0.1,0,0.1-0.1
		c0-0.1,0-0.2,0-0.4c0.1,0,0.2-0.1,0.2-0.2c0.2-0.1,0.3-0.3,0.5-0.5v-0.1c0.1,0,0-0.1,0.1-0.1c0.1-0.5,0.4-0.7,0.6-1.1
		c0.1,0,0.1-0.1,0.1-0.1c0-0.1,0-0.1,0-0.1c0.2-0.1,0.3-0.2,0.3-0.3c0.1,0,0.1-0.1,0.2-0.1c0-0.2,0.2-0.2,0.2-0.3
		c0.2-0.1,0.2-0.3,0.4-0.3c0-0.1,0.1-0.2,0.2-0.2l0-0.1c0.4-0.2,0.6-0.7,0.9-1c0.1,0,0.1,0,0.1,0c0-0.1,0.1-0.1,0.1-0.2
		c0-0.1,0-0.2,0.1-0.1c0-0.2,0.3-0.2,0.3-0.5c0.3-0.1,0.3-0.5,0.7-0.6c0-0.1,0.1-0.2,0.2-0.2c0-0.3,0.3-0.2,0.3-0.5
		c0.2,0,0.2-0.3,0.4-0.3l0-0.1c0.1,0,0.3-0.4,0.3-0.5c0-0.2-0.3-0.3-0.4-0.3c0,0.1-0.2,0-0.2,0c-0.2,0.1-0.5,0-0.8,0
		c-0.3,0-0.6,0-0.8,0c-0.6,0.1-1.2,0.1-1.7,0.1c-0.5-0.1-1.1,0-1.5,0.1c-0.2,0-0.4,0.1-0.6,0c-0.1,0-0.1,0.1-0.2,0.1
		c0,0.1,0,0.1,0,0.2c-0.3,0.3-0.5,0.8-0.8,1.2c0,0.2-0.1,0.3-0.2,0.4c-0.1,0.3-0.3,0.6-0.5,0.8c-0.1,0.2-0.2,0.5-0.4,0.6
		c0,0.2-0.1,0.3-0.3,0.4c-0.1,0.2-0.1,0.3-0.2,0.4c-0.2-0.2-0.2-0.6-0.3-0.8c0-0.2-0.2-0.3-0.3-0.5c-0.1-0.1-0.2-0.2-0.3-0.4
		c-0.3-0.2-0.6-0.5-0.7-0.9c0,0-0.1,0-0.1-0.1c-0.2-0.3-0.4-0.7-0.7-0.9c0-0.1,0,0,0-0.1c-0.1,0-0.1,0-0.1,0
		c-0.2-0.3-0.5-0.5-0.7-0.9c-0.1,0-0.2-0.1-0.3-0.1c0,0-0.1,0.1-0.2,0.1c-0.7,0-1.5,0.1-2.2,0.1c-0.2-0.1-0.5,0-0.6-0.1
		C-62.5,132.4-62.7,132.4-63,132.3C-63,132.3-63,132.3-63,132.3 M-72.2,146.1C-72.1,146.1-72.1,146-72.2,146.1
		c0-0.2,0.1-0.1,0.1-0.2c-0.1-0.2,0-0.3,0.1-0.5c-0.1-0.1,0-0.1,0-0.2c0-0.1,0-0.1,0-0.1c0,0,0-0.1,0-0.1c0-0.1,0.1-0.3,0.1-0.3
		c0-0.2,0-0.5,0-0.7c0.2-0.3-0.1-0.6,0-0.9c-0.1-0.3,0.1-0.6,0-1c0.2-0.4,0.1-0.9,0.2-1.5c-0.1-0.1,0-0.1,0-0.2c0-0.3,0.1-0.6,0-0.9
		c0-0.2-0.1-0.5-0.1-0.6c0,0,0.1,0,0.1-0.1c-0.1-0.5,0.2-0.8,0-1.4c0.1-0.2,0.1-0.6,0.2-0.7c0-0.1,0-0.2,0-0.3c0,0,0,0.1,0,0
		c0-0.1,0-0.1,0-0.1c0-0.2,0-0.3,0-0.5c0.1,0,0.1-0.1,0.1-0.1c0.2-1.1,0-2.4,0.4-3.4c-0.2-0.3-0.5-0.2-0.9-0.2c-0.3,0-0.7,0-1,0
		c-0.3,0-0.6,0-0.8,0c-0.2,0-0.4,0-0.5,0c-0.2,0.1-0.6,0-0.9,0.1c-0.1,0.1-0.1,0.1-0.1,0.2c0,0.1,0.1,0.1,0.1,0.2
		c0,0.1-0.1,0.1,0,0.1c0,0.1,0.1,0.1,0,0.1c0,0.2-0.1,0.6-0.1,0.8c0,0,0,0,0,0.1c0,0,0,0,0,0.1c-0.1,1,0.1,2.2,0,3.2
		c0,0.2-0.1,0.3-0.1,0.5c-0.1,0.6,0,1.1-0.1,1.6c0,0.3,0,0.6-0.1,0.9c0,0,0,0,0,0.1c0,0.1-0.1,0.2-0.1,0.3c0,0.8-0.1,1.4-0.1,2.1
		c0,0,0,0,0,0.1c-0.1,0.7,0,1.5-0.1,2.2c0,0.1,0.1,0,0,0.1c-0.2,1.1-0.2,2.4-0.3,3.6c-0.1,1-0.1,1.9-0.2,3c0.1,0.7-0.1,1.4,0.1,2.1
		c0.1,0,0.1,0.1,0.2,0.1c0.1,0.2,0.3,0.3,0.5,0.4c0.3,0,0.6,0.1,1,0.2c0.1-0.1,0.2-0.1,0.4,0c0.7,0.1,1.9,0.2,2.8,0
		c0.1,0,0.1,0,0.2,0c0.1,0,0-0.1,0.1,0c0.2,0.1,0.4,0,0.7,0c0.5,0,1.1,0,1.6,0c0,0,0,0,0.1,0c0.4,0,0.9,0.1,1.3,0.1
		c0.9,0.1,1.9,0,2.8,0.1c0.3-0.1,0.8,0,1.2-0.1c0.7,0,1.4-0.1,1.9,0c0.1-0.1,0.2-0.1,0.3-0.1c0-0.1,0.1-0.1,0.2-0.2
		c0-0.1-0.1-0.1-0.1-0.2c0-0.1,0.1-0.1,0.1-0.2c-0.1-0.2,0-0.5-0.1-0.7c0-0.6,0.1-1.2,0-1.8c0-0.1,0.1-0.2,0.1-0.3
		c-0.2-0.3-0.9-0.3-1.4-0.2c-0.1,0-0.1,0-0.2,0c-0.6,0.1-1.2,0-1.8,0c-1,0-2,0-2.9,0c-0.2,0-0.3-0.1-0.5-0.1c-0.6-0.1-1.2,0-1.8-0.1
		c-0.6-0.1-1.1,0-1.7-0.1c-0.5-0.1-0.9-0.2-1.3-0.3c0,0,0,0,0-0.1c0-0.4,0.1-0.8,0.2-1.1c0-0.1,0-0.2,0-0.3c0,0,0-0.1,0.1-0.1
		c0,0,0,0,0,0c0,0,0.1-0.1,0.1-0.1c0-0.1,0-0.2,0-0.3c0,0,0-0.1,0.1-0.1c0,0,0,0,0,0c0,0,0.1-0.1,0.1-0.1c0-0.1,0-0.2,0-0.3
		c0,0,0.1-0.1,0.1-0.1c0-0.1,0-0.2,0-0.3c0,0,0.1,0,0.1-0.1c0-0.1-0.1,0-0.1-0.1c0,0,0.1-0.1,0.1-0.1c0-0.1-0.1-0.1-0.1-0.2
		c0.1-0.2,0-0.4,0.1-0.6C-72.2,146.3-72.2,146.2-72.2,146.1 M-39.4,132.9c-0.3-0.2-0.8,0-1.2,0c-0.1,0.1-0.3,0.1-0.4,0.1
		c-0.4,0.1-0.9,0.2-1.3,0.4h-0.1c0,0,0,0,0,0.1c-0.3,0.1-0.6,0.3-0.9,0.4c-0.1,0.1-0.1,0.1-0.2,0.1c-0.3,0.3-0.7,0.6-1,0.9
		c-0.1,0-0.1,0.1-0.1,0c0,0,0,0.1-0.1,0.1c-0.5,0.4-0.8,1-1.3,1.4c0,0.1-0.1,0.2-0.2,0.2c-0.3,0.9-0.8,1.7-1.2,2.5c0,0,0,0.1,0,0.1
		c-0.3,0.2-0.3,0.7-0.5,1.1c-0.1,0.3-0.2,0.7-0.3,1c0,0.1-0.1,0.3,0,0.4c-0.1,0.7-0.1,1.6,0,2.3c0,0-0.1,0,0,0.1
		c0.1,0.3,0,0.6,0.1,0.9c0.1,0.4,0.2,0.8,0.2,1.2c0.1,0.2,0,0.3,0.1,0.5c0.1,0.1,0,0.4,0.1,0.5c0.2,1.2,0.8,2,1.1,3
		c0.1,0,0.1,0.1,0.2,0.1c0,0.2,0.1,0.3,0.3,0.4c0,0.2,0.1,0.2,0.2,0.4c0.1,0,0.2,0.2,0.4,0.3c0,0.1,0,0.1,0,0.1
		c0.2,0.1,0.3,0.4,0.5,0.4c0,0,0,0,0,0.1c0.1,0,0.1,0,0.1,0c0.1,0.2,0.3,0.3,0.4,0.4c0.5,0.2,0.8,0.6,1.3,0.7
		c0.5,0.3,1.2,0.5,1.8,0.6c0.2-0.1,0.4,0.1,0.6,0.1c0.3,0,0.6,0,0.9,0.1c0.1,0,0.2,0.1,0.3,0.1c0.6,0.1,1.5,0,1.9-0.1
		c0,0,0,0.1,0.1,0.1c1.1-0.1,2.2-0.5,2.9-1.3c0.2-0.1,0.3-0.3,0.4-0.4c0,0,0.1,0,0.1,0c0.2-0.3,0.4-0.4,0.7-0.6c0,0,0-0.1,0.1-0.1
		c0.5-0.3,0.8-0.7,1.2-1.1c0,0,0-0.1,0-0.1c0.3-0.2,0.4-0.6,0.7-0.9c0-0.1,0.1-0.2,0.1-0.3c0.1-0.1,0.1-0.3,0.2-0.3l0-0.1
		c0.1-0.1,0.1-0.2,0.1-0.3c0,0,0.1,0,0.1-0.1c0-0.1,0-0.1,0.1-0.2c0-0.1,0.1-0.1,0.2-0.2c0-0.1,0.1-0.2,0.1-0.3
		c0-0.1,0.1-0.2,0.1-0.3c0.1-0.2,0.1-0.3,0.2-0.4c0.1-0.1,0-0.2,0.1-0.4c0-0.1,0.1-0.1,0.1-0.2c0.1-0.6,0.4-1.2,0.5-1.9
		c0,0,0-0.1,0.1-0.1c0-0.3,0.1-0.6,0.2-0.9c0.1-0.6,0-1.2,0-1.9c-0.1-0.1,0-0.4-0.1-0.6c0,0,0,0,0-0.1c-0.1-0.3-0.1-0.6-0.1-1
		c-0.1-0.2-0.1-0.4-0.1-0.6c0-0.1,0-0.2-0.1-0.3c-0.1-0.3-0.2-0.6-0.3-0.9c-0.1,0-0.1-0.1-0.1-0.2c-0.1,0-0.1,0-0.1-0.1
		c-0.2-0.4-0.3-0.8-0.5-1.2c0-0.3-0.3-0.4-0.4-0.7c-0.3-0.2-0.5-0.5-0.9-0.7c-0.1-0.2-0.3-0.2-0.3-0.4c-0.1-0.1-0.3-0.1-0.3-0.2
		c-0.1,0-0.1,0-0.1,0c-0.3-0.3-0.8-0.5-1.1-0.8c-0.1,0-0.1-0.1-0.2,0c0-0.1-0.1,0-0.1-0.1c-0.1,0-0.1,0-0.2,0
		c-0.4-0.3-0.8-0.5-1.3-0.6c-0.1-0.1-0.2-0.1-0.3-0.1c0,0-0.1-0.1-0.1-0.1c0,0-0.1,0-0.2,0c-0.2-0.1-0.4-0.2-0.6-0.2
		c-0.1-0.1-0.2,0-0.3-0.1c-0.5-0.1-0.9-0.2-1.5-0.2C-39.2,132.9-39.3,132.9-39.4,132.9 M-8.2,148.6c-0.1,0.1,0,0.3,0,0.4
		c0,0-0.1,0.1-0.1,0.2c0,0.4,0.1,0.9,0.1,1.3c-0.1,0.2,0,0.2,0,0.4c0,0.4,0.1,0.9,0.2,1.3c-0.1,0.2,0,0.5,0.1,0.7
		c0,0.3,0,0.5,0.1,0.6c-0.1,0.2-0.4,0.3-0.6,0.1c-0.5-0.1-1.2,0.2-1.7,0c-0.1,0-0.1,0.1-0.2,0.1c-0.2-0.1-0.4-0.2-0.5-0.5
		c-0.1,0-0.3-0.1-0.3-0.2c-0.2,0-0.2-0.1-0.3-0.2c-0.1,0-0.2-0.1-0.3-0.2c-0.6-0.3-1.1-0.7-1.6-1.1c-0.3-0.1-0.4-0.4-0.6-0.6l-0.1,0
		c-0.3-0.4-0.8-0.7-1.1-1.1c-0.2-0.1-0.3-0.2-0.4-0.4c-0.1,0-0.2-0.1-0.2-0.2c-0.3-0.2-0.5-0.5-0.8-0.7c0-0.1-0.1,0,0-0.1
		c-0.7-0.6-1.3-1.2-1.8-1.9c-0.3-0.3-0.5-0.6-0.8-0.9c-0.4-0.3-0.6-0.9-1-1.2c0,0,0,0,0-0.1c-0.3-0.3-0.5-0.7-0.8-1
		c-0.1-0.3-0.4-0.5-0.6-0.8c0,0-0.1,0-0.1,0c0-0.1-0.1-0.2-0.3-0.2c-0.4-0.4-0.7-0.8-1.2-1.1c0,0.4,0.2,0.8,0.2,1.3
		c0.1,0.1,0.1,0.2,0.1,0.3c0,0,0,0,0,0.1c0,0.2,0.1,0.5,0,0.6c0.1,0,0,0.1,0.1,0.1c0,0.4,0.1,0.8,0,1.2c0.1,0.1,0,0.2,0,0.3
		c0,0.1,0,0.1,0,0.1c0.1,0.1,0,0.1,0,0.1c-0.1,0.1-0.1,0.5,0,0.7c0,0.5,0.1,0.9,0.1,1.3c0.3,0.8,0.5,1.7,0.5,2.7
		c0,0.1,0.1,0.1,0.1,0.1c0,0.1,0,0.2,0,0.3c0,0.1,0,0,0,0.1c0.1,0.3,0.1,0.8,0.2,1.1c0,0.1,0.1,0.5,0,0.7c0.1,0.3,0,0.7,0.1,1
		c0.1,0.1,0.1,0.2,0.1,0.4c0,0,0.1,0,0.1,0.1c-0.1,0-0.1,0.1-0.1,0.2c-0.8,0.1-1.8-0.1-2.6,0c-0.7-0.1-1.3,0.2-1.9,0.2
		c-0.1,0-0.2-0.1-0.4-0.1c-0.1-0.1-0.2-0.2-0.1-0.5c-0.2-0.8-0.3-1.7-0.5-2.5c0-0.3-0.1-0.7,0-0.9c-0.1-0.1,0-0.4-0.1-0.5
		c0-0.6-0.2-1.5-0.1-2c-0.2-0.7-0.1-1.5-0.2-2.3c0-0.2,0-0.7-0.1-1c0,0,0-0.1,0-0.2c0-0.1-0.1,0,0-0.1c0-0.1,0.1-0.1,0-0.2
		c0-0.2,0-0.7-0.1-0.9c0-0.1,0-0.1,0-0.1c-0.1-0.9-0.1-2.3,0-3.2c0,0,0,0,0-0.1c0-0.4,0.1-0.8,0.1-1.2c0-0.4,0.1-1.3,0-1.8
		c0.1-0.4,0.2-1.2,0-1.6c0-0.5,0-1.1,0-1.6c0.1-0.1,0.2-0.2,0.3-0.3c0.2,0,0.4,0.1,0.6,0c0.2,0,0.5,0,0.8-0.1c0.5,0,1.3,0.1,1.9,0.2
		c0.7,0.7,1.6,1.3,2.2,2.1c0,0,0,0.1,0.1,0.1c0.1,0.3,0.3,0.3,0.4,0.6c0.1,0.1,0.1,0.3,0.3,0.3c0,0.2,0.2,0.2,0.2,0.4
		c0.2,0.2,0.3,0.6,0.5,0.7c0,0.2,0.2,0.3,0.3,0.5l0,0.1c0.1,0,0.1,0.2,0.2,0.2c0,0.1,0.1,0.2,0.2,0.3c0,0.1,0.1,0.3,0.2,0.3
		c0,0.1,0.1,0.2,0.2,0.3c0.1,0.2,0.2,0.4,0.3,0.5c0.2,0.3,0.4,0.6,0.5,1c0.1,0.1,0.2,0.3,0.4,0.4c0,0.1,0.1,0.2,0.2,0.3
		c0,0.1,0.1,0.2,0.2,0.3c0.2,0.4,0.4,0.7,0.7,1l0,0.1c0.2,0.2,0.4,0.4,0.5,0.7c0.2,0.1,0.3,0.3,0.5,0.5c0.2,0.1,0.2,0.4,0.4,0.5
		c0.1,0.3,0.4,0.5,0.5,0.8c0.1,0,0.1,0.1,0.2,0.1c0,0.1,0.1,0.1,0.1,0.1c0.2,0.2,0.3,0.4,0.5,0.5c0.2,0.4,0.6,0.7,0.8,1.1
		c0.3,0.1,0.4,0.5,0.6,0.7c0.1,0.1,0.2,0.1,0.2,0.2c0.1,0.1,0.1,0.3,0.2,0.3c0-0.4,0-1,0-1.3c0.1-0.8,0-1.4-0.1-2.2
		c0-0.1,0-0.1,0-0.2c-0.1-0.3-0.2-0.8-0.2-1.1c0,0,0-0.1,0-0.1c0-0.1,0.1-0.4,0-0.4c0-0.1,0,0,0-0.1c-0.1-0.2,0-0.7-0.1-0.9
		c0.1-0.2-0.1-0.6,0-0.8c-0.1-0.5,0-1.6-0.1-2.1c0-0.1,0-0.1,0-0.1c-0.1-1.1,0-2.3-0.2-3.4c0-0.2,0-0.4-0.1-0.6
		c-0.1-0.7-0.2-1.3-0.2-1.9c0,0,0-0.1-0.1-0.2c0,0,0.1-0.1,0-0.2c0.1-0.2,0.4-0.1,0.5-0.1c0.2,0,0.3,0,0.4,0c0.1,0,0.3,0.1,0.4,0.1
		c1,0,2.1,0,3.2,0c0.1,0.1,0.2,0.1,0.3,0.2c0.1,0.2,0.1,0.6,0,0.7c0.1,0.1-0.1,0.2,0,0.3c-0.1,0.2,0.1,0.5-0.1,0.8
		c0.1,0.2,0,0.5,0,0.7c0,0.1-0.1,0.3,0,0.3c-0.1,0.3,0,0.7-0.1,1c0.1,0.4,0.1,0.9,0.1,1.4c0,1,0,1.9-0.1,2.7c0,0,0.1,0.1,0,0.1
		c-0.1,1.2,0,2.3,0,3.3c0,0.1,0,0.1,0,0.2c0,0.3,0,0.8,0.1,1.2C-8.3,146.3-8.3,147.3-8.2,148.6C-8.2,148.6-8.2,148.6-8.2,148.6"/>
</g>
<g id="Layer_2">
	<path class="st2" d="M-66.8,160.1C-66.7,160.2-66.8,160.1-66.8,160.1c-0.1,0.2,0,0.1,0,0.2c0,0.2,0,0.4,0,0.6c0,0,0,0-0.1,0
		c0,0.3-0.1,0.5-0.3,0.7c0.1,0.3-0.2,0.5-0.2,0.8c-0.3,0.2-0.3,0.6-0.2,0.9c0,0.1-0.2,0.1-0.1,0.3c0,0-0.1,0-0.1,0
		c-0.1,0.2-0.1,0.8-0.1,0.9c-0.1,0.1,0.1,0.3-0.1,0.3c0,0.1,0.1,0.1,0.1,0.1c-0.1,0.1-0.1,0.3-0.1,0.4c0.1,0.1,0.2,0.1,0.3,0.1
		c0,0,0,0.1,0.1,0.1c0.4,0.1,0.9,0,1.3-0.2c0.1-0.3-0.1-0.6-0.1-0.8c0-0.1,0.1-0.3,0.1-0.4c0.1-0.3,0.1-0.6,0.2-0.7
		c0,0,0.2-0.1,0.2-0.2c0,0,0-0.1,0-0.1c0,0,0.1,0,0.1-0.1c0,0,0-0.1,0-0.1c0.1-0.1,0.4,0,0.5-0.2c0.2,0,0.2,0.2,0.4,0.2
		c0,0.1,0,0.1,0.1,0.1c0.1,0.2,0.5,0.4,0.3,0.6c0,0,0.1,0,0.1,0.1c-0.1,0.1,0,0.2-0.1,0.3c-0.1,0.5-0.4,0.8-0.6,1.2
		c-0.1,0.1-0.2,0.2-0.3,0.3c-0.2,0-0.3,0.1-0.3,0.2c0,0.1,0.2,0.2,0.2,0.4c0.1,0,0.2,0.1,0.2,0.1c0,0,0.1,0.1,0.1,0.1
		c0.6,0.1,1.1-0.1,1.6-0.4c0.2-0.4,0.5-0.7,0.7-1c0.1,0,0.1,0,0.2,0c0.1,0.1,0.2,0.1,0.3,0.2c0,0.1,0,0.2,0.1,0.3
		c-0.1,0.1-0.3,0.3-0.4,0.4c0,0,0,0,0,0c-0.1,0.2-0.3,0.3-0.4,0.5c-0.1,0-0.2,0.1-0.3,0.2c-0.2,0.1-0.4,0.2-0.6,0.3
		c-0.1-0.1-0.2,0.1-0.3,0c-0.6,0.2-1.1-0.1-1.6-0.3c-0.1-0.2-0.2-0.3-0.3-0.5c-0.6,0.3-1.3,0.3-2,0c-0.1,0.8-0.3,1.7-0.3,2.6
		c0,0.1-0.1,0.1-0.1,0.1c0.1,0.2-0.1,0.4,0.1,0.6c-0.1,0.1,0,0.2,0,0.3c0,0,0,0,0.1,0c-0.1,0.2-0.1,0.5,0,0.6
		c-0.1,0.4-0.1,1-0.1,1.5c-0.2,0.3,0,0.8-0.2,1.1c-0.3,0.1-0.5,0-0.6-0.2c0.2-0.9,0.3-1.9,0.3-2.7c0,0,0-0.1-0.1-0.1
		c0-0.1,0,0,0.1-0.1c0-0.5-0.1-1.4,0.1-1.8c0-0.1,0-0.3,0-0.5c0-0.1,0.1-0.2,0.1-0.4c0.1-0.4,0-0.8,0.1-1.2
		c-0.1-0.1-0.2-0.2-0.4-0.3c-0.1,0-0.1,0.1-0.1,0.2c-0.1,0-0.1,0-0.1,0.1c-0.1,0-0.1,0.1-0.1,0.1c-0.4,0.2-0.6,0.6-1,0.8
		c-0.1,0.1-0.3,0.1-0.4,0.2c-0.1,0-0.3-0.1-0.4,0c-0.4-0.2-0.8-0.6-0.7-0.9c-0.1-0.1,0-0.3-0.1-0.4c-0.1,0.1-0.1,0.2-0.3,0.3
		c-0.1,0.3-0.4,0.4-0.5,0.7c-0.2,0.1-0.2,0.3-0.5,0.3c0,0-0.1,0.1-0.1,0.1c-0.7,0.2-1.1-0.3-1.6-0.6c-0.3,0.2-0.5,0.4-0.9,0.5
		c-0.2,0.2-0.4,0.3-0.6,0.3c0,0,0,0,0,0.1c-0.5,0.1-0.8,0.2-1.4,0.2c-0.2-0.2-0.6-0.2-0.8-0.3c-0.4,0-0.4-0.3-0.7-0.3
		c0-0.2-0.1-0.3-0.2-0.3c0-0.1-0.1-0.2-0.2-0.3c-0.2-0.8-0.3-1.2-0.5-2c0.1-0.1,0-0.3,0.1-0.4c0-0.4,0.2-0.5,0.2-0.8c0,0,0,0,0.1,0
		c0-0.2,0-0.4,0.1-0.5c0-0.1-0.1,0,0-0.1c0.1,0,0-0.1,0-0.1c0,0,0.1,0,0.1,0c0,0,0-0.1,0-0.1c0,0,0.1,0,0.1-0.1c0,0,0-0.1,0-0.1
		c0-0.1,0.2-0.1,0.2-0.3c0.1,0,0,0,0.1,0c0.3-0.4,0.7-0.7,1.2-0.9c0.2,0,0.3,0,0.4-0.1c0.4,0,0.8,0.1,1.1,0.3
		c0.2,0.2,0.3,0.5,0.5,0.8c0,0,0,0.1,0,0.1c-0.5,0.2-0.5-0.4-0.8-0.6c-0.2-0.1-0.4,0-0.5-0.1c-0.6,0.1-1.2,0.4-1.4,0.9
		c-0.2,0.1-0.2,0.3-0.4,0.5c0,0,0.1,0,0,0.1c-0.1,0.2-0.2,0.5-0.2,0.9c-0.1,0.1-0.1,0.2-0.2,0.4c-0.2,0.5,0,1,0.1,1.5
		c0,0,0.1,0,0.1,0.1c0,0.1-0.1,0-0.1,0.1c0,0,0,0,0,0.1c0.2,0.5,0.4,0.9,0.9,1c0,0,0,0,0,0.1c0.1,0,0.1,0,0.2,0
		c0.2,0.1,0.5,0.2,0.8,0.1c0.2,0,0.5-0.2,0.8-0.2c0.1-0.1,0.4-0.1,0.5-0.3c0.2,0,0.4-0.2,0.5-0.3c0.1,0,0.2,0,0.2-0.1
		c0.1,0.1,0.3,0,0.4,0.1c0-0.2-0.1-0.6,0-0.8c0,0,0,0,0,0c0.1-0.3,0.3-0.5,0.4-0.8c0.1,0,0.2-0.2,0.3-0.4c0.4-0.3,0.9-0.8,1.6-0.7
		c0.2,0.2,0.6,0.3,0.8,0.6c0.2-0.2,0.2-0.4,0.3-0.6c0.2-0.1,0.3,0.2,0.4,0c0.2,0.1,0.1,0.3,0.2,0.4c-0.3,0.2,0,0.8-0.2,1
		c0.1,0.1-0.1,0.2,0.1,0.3c-0.1,0.1,0,0.1,0,0.2c-0.1,0.2-0.1,0.5,0,0.7c-0.1,0.1-0.1,0.1,0,0.2c0,0.1,0.1,0,0.1,0
		c-0.1,0.1,0,0.1,0,0.2c0.3,0,0.6-0.2,0.7-0.4c0.2,0,0.2-0.3,0.4-0.3c0.1-0.1,0.3-0.2,0.3-0.4c0.1,0,0.1-0.2,0.2-0.2
		c-0.1-0.2-0.2-0.3-0.3-0.4c0-0.2-0.1-0.3-0.2-0.3c0-0.1,0-0.1,0-0.2c-0.3-0.6,0.3-1.2,1-1.1c0,0.1,0.1,0.1,0.2,0.1
		c0,0.1,0.1,0.1,0.2,0.2c0.2-0.2,0-0.6,0.1-0.8c0,0,0,0,0-0.1c0.1-0.4,0-0.8,0.1-1.2c0-0.5,0.1-1,0.3-1.3c0.1,0,0.1-0.1,0.2-0.1
		c0.1,0,0.3-0.1,0.3,0.1c0.2,0,0.2,0.2,0.4,0.1C-66.9,159.8-66.9,160-66.8,160.1 M-67.7,160.5c0,0.4,0,0.8-0.1,1.2
		c0.1,0.1,0.1,0.3,0,0.5c0.3-0.6,0.6-1.3,0.4-2.1C-67.7,159.9-67.6,160.3-67.7,160.5 M-69.2,164.1c0,0.1,0,0.2,0.1,0.2
		c0.2-0.2,0.3-0.4,0.4-0.6c-0.1-0.2-0.2-0.3-0.3-0.5C-69.3,163.2-69.5,163.8-69.2,164.1 M-72.2,164c0-0.1-0.1-0.2-0.1-0.3
		c-0.2-0.1-0.3-0.3-0.6-0.3c-0.4,0-0.7,0.4-0.9,0.5c-0.1,0.2-0.2,0.4-0.3,0.5c-0.1,0.4-0.4,0.6-0.3,1.2c0.1,0.1,0.2,0.2,0.2,0.3
		c0.3,0.1,0.3,0.3,0.7,0.3c0.4-0.4,0.8-0.8,1.2-1.3C-72.3,164.5-72,164.3-72.2,164C-72.2,164-72.2,164-72.2,164 M-65.3,163.4
		c-0.1,0.2-0.3,0.4-0.3,0.8c0.1,0,0,0.1,0.1,0.2c-0.2,0.1-0.1,0.4-0.1,0.5c0.4-0.3,0.6-0.7,0.8-1.1c0,0,0,0,0-0.1
		c0.1-0.1,0-0.3,0-0.4C-65.1,163.2-65.1,163.4-65.3,163.4 M-68.6,164.8C-68.5,164.8-68.6,164.9-68.6,164.8c0.1,0,0.1,0,0.1-0.1
		c0,0,0,0-0.1,0C-68.5,164.7-68.6,164.7-68.6,164.8 M-54.1,162.6c-0.2,0-0.3,0.1-0.5,0.2c0.1,0-0.2,0.1-0.3,0.2
		c-0.1,0-0.1,0.1-0.1,0.1c0.1,0.5,0.5,0.8,0.6,1.3c0,0,0.1,0.1,0.1,0.1c0,0.1,0.1,0.2,0.2,0.3c0,0,0,0.1,0,0.1
		c0.2,0.1,0.4-0.1,0.6-0.2c0.1-0.1,0.5-0.4,0.5-0.5c0,0,0-0.1,0-0.1c0,0,0.1,0,0.1,0c0.1-0.1,0-0.2,0-0.3c0.1,0,0.1-0.1,0.2-0.2
		c0.4-0.1,0.7,0.2,0.6,0.5c0,0-0.1,0-0.1,0c0,0.1-0.1,0.2-0.1,0.3c0,0-0.2,0.1-0.1,0.1c-0.3,0.2-0.4,0.6-0.8,0.7
		c0,0.1-0.1,0.1-0.1,0.2c0,0-0.1,0-0.1,0c0,0.1-0.1,0.1-0.2,0.2c0.1,0.1,0.2,0.3,0.4,0.4c0.1,0.3,0.8,0.4,0.4,0.8
		c-0.1,0-0.2,0-0.3,0c-0.1,0-0.2-0.1-0.2-0.1c-0.2-0.3-0.5-0.5-0.8-0.8c-0.1,0.1-0.2,0.2-0.4,0.2c-0.3,0.3-1,0.4-1.5,0.4
		c-0.2-0.1-0.6-0.1-0.8-0.1c-0.1,0-0.1-0.1-0.3-0.1c-0.1-0.1-0.2-0.2-0.3-0.2c-0.2-0.3-0.3-0.5-0.4-0.8c0.1-0.1,0-0.1,0-0.2
		c0.1-0.1,0.1-0.2,0.1-0.4c0,0,0,0,0.1,0c0.1-0.3,0.4-0.5,0.5-0.8c0.1-0.1,0.2-0.2,0.3-0.3c0.2,0,0.3-0.2,0.5-0.3c0,0,0,0,0-0.1
		c0.2-0.1,0.3-0.2,0.5-0.3c0-0.1,0-0.2-0.1-0.2c0,0,0,0,0-0.1c-0.1-0.2-0.1-0.4-0.1-0.6c0.1-0.1,0-0.3,0.1-0.4c0,0,0.1-0.1,0.1-0.1
		c0-0.1,0-0.2,0-0.2c0.1-0.1,0.2-0.2,0.2-0.3c0.1-0.3,0.2-0.4,0.4-0.5c0.2-0.1,0.4-0.3,0.6-0.4c0.1-0.1,0.6,0,0.8,0
		c0.3,0,0.6,0.2,0.9,0.4c0,0.1,0,0.1,0.1,0.1c0.2,0.5,0.1,1-0.3,1.3c-0.1,0.1-0.2,0.2-0.4,0.3C-53.5,162.2-53.9,162.3-54.1,162.6
		 M-54.3,160.5c-0.2,0.1-0.3,0.2-0.4,0.3c-0.1,0.3-0.3,0.5-0.4,0.8c0,0.1,0.1,0,0,0.1c-0.2,0.1-0.1,0.4-0.2,0.6c0,0,0.1,0.1,0.1,0.1
		c0.7-0.3,1.3-0.8,1.9-1.3c0.1-0.4,0-0.8-0.4-0.8c0,0.1,0,0-0.1,0C-53.9,160.4-54.1,160.4-54.3,160.5 M-56.1,163.8c0,0,0,0.1,0,0.1
		c-0.3,0.2-0.6,0.5-0.7,0.7c-0.2,0.1-0.2,0.5,0,0.7c0,0-0.1,0,0,0c0.1,0,0.1,0.1,0.1,0.2c0.8,0.3,1.9,0.2,2.4-0.4c0,0,0,0,0-0.1
		c-0.2-0.2-0.4-0.4-0.5-0.7c-0.3-0.3-0.4-0.7-0.6-1C-55.8,163.5-55.9,163.7-56.1,163.8 M-63.6,160.8c0-0.3-0.2-0.4-0.5-0.4
		c-0.2,0.4-0.7,0.6-1,0.9c0.1,0.1,0.2,0.2,0.2,0.3c0.4,0.1,0.6-0.1,0.8-0.3C-63.9,161.1-63.6,161-63.6,160.8
		C-63.5,160.8-63.6,160.8-63.6,160.8 M-29.2,160.5c0-0.2,0-0.3,0-0.5c0-0.3,0.1-0.7-0.2-0.9c-0.2,0.2-0.3,0.5-0.4,0.8
		c-0.3,0.6-0.1,1.4-0.1,2.1C-29.7,161.6-29.3,161-29.2,160.5 M-45.2,160.7c-0.2,0.2,0,0.5-0.1,0.8c0.1,0.2,0,0.3,0,0.5
		c-0.1,0.6,0,1.3-0.1,1.8c0,0.2,0,0.4-0.1,0.5c0,0,0.1,0,0,0.1c-0.2,0.3-0.4,0.7-0.6,1c-0.3,0.2-0.6,0.2-0.9,0.2
		c-0.5-0.2-0.7-0.7-0.7-1.3c-0.1,0-0.1-0.1-0.3-0.1c0-0.2-0.2,0.1-0.3-0.1c0,0-0.1,0.1-0.1,0.1c0,0.6,0.4,0.9,0.6,1.3
		c0.2,0.1,0.4,0.2,0.5,0.4c0.2,0,0.4,0.1,0.6,0.2c0.4-0.1,0.8-0.2,1.2-0.4c0-0.1,0-0.2,0.1-0.2c0-0.2,0.1-0.3,0.2-0.4
		c0-0.1,0.1-0.1,0.1-0.1c0-0.1,0-0.2,0.1-0.2c0.1-0.1,0.2-0.2,0.2-0.3c0.2-0.1,0-0.5,0.2-0.7c0,0,0,0-0.1,0c0.1,0,0-0.1,0.1-0.1
		c-0.1-0.9,0.1-2,0.1-2.9c0-0.1,0-0.1,0.1-0.2c0-0.1,0-0.2,0-0.2c-0.1-0.1-0.1-0.1-0.2-0.2C-45.3,160.1-45.3,160.4-45.2,160.7
		 M-4.7,159.1c0,0.3,0.2,0.7,0.5,0.6c0,0,0,0.1,0,0c0.1-0.1,0.2-0.2,0.3-0.3C-3.6,159-4.4,158.6-4.7,159.1 M-14,162.3
		c0,0,0-0.1,0-0.1c0,0-0.1,0-0.1,0C-14.1,162.2-14,162.2-14,162.3 M-1.8,162.3c0.1,0.1,0,0.1,0.1,0.2c-0.1,0.2,0,0.5,0,0.7
		c0.2-0.5,0.5-0.7,0.6-1.3C-1.5,161.6-1.7,162-1.8,162.3 M-68.6,164.8C-68.5,164.8-68.6,164.9-68.6,164.8c0.1,0,0.1,0,0.1-0.1
		c0,0,0,0-0.1,0C-68.5,164.7-68.6,164.7-68.6,164.8 M-42.3,164.8c-0.2,0.2-0.4,0.3-0.5,0.5c0,0.1-0.1,0.3,0.1,0.3
		c0.1,0,0.1-0.1,0.1-0.1c0.1,0,0.1-0.1,0.2-0.1c0.2-0.2,0.4-0.4,0.4-0.8c0,0,0.1,0,0.1,0C-42.2,164.5-42.3,164.7-42.3,164.8
		 M-35.7,164.6C-35.7,164.6-35.7,164.7-35.7,164.6c0.1,0.3,0.3,0.5,0.7,0.6c0.3-0.1,0.5-0.3,0.7-0.5c0.4-0.8,0.6-1.8,0.9-2.6
		c0-0.1,0-0.1,0-0.1c0.1,0,0.1-0.1,0.1-0.2c0,0,0.2,0,0.1,0c0.2,0.1,0.3,0.1,0.5,0.2c0,0.2-0.1,0.2,0,0.4c-0.2,0.1-0.1,0.6,0,0.7
		c0,0-0.1,0-0.1,0c0,0.3-0.1,1,0.1,1.3c-0.1,0.1,0.1,0.3,0.1,0.3c0.1,0.2,0.3,0.3,0.5,0.4c0,0,0,0.1,0,0.1c0.4,0,0.9-0.4,1-0.7
		c0,0,0.1,0,0.1,0c0.1-0.3,0.3-0.4,0.4-0.6c0.1-0.3,0.1-0.5,0.1-0.8c0-0.3,0-0.5,0-0.8c0-0.3,0-0.6,0-1c0-0.1-0.1-0.3-0.1-0.4
		c0-0.2,0.2-0.5,0-0.7c0.2-0.6,0.3-1.2,0.8-1.5c0.1,0,0.3,0,0.4,0c0.2,0.1,0.4,0.2,0.5,0.3c0,0.1,0,0.1,0,0.2c0,0,0,0,0.1,0
		c0.1,0.4,0.1,0.7,0.1,1.1c0,0-0.1,0-0.1,0c0,0.3,0,0.5-0.1,0.7c0,0.1,0,0.2-0.1,0.3c0,0-0.1,0.1-0.1,0.1c0,0.1,0,0.3-0.1,0.4
		c-0.1,0.1-0.3,0.2-0.1,0.3c-0.1,0.1-0.2,0.3-0.2,0.5c-0.1,0.1-0.2,0.2-0.2,0.4c-0.1,0-0.2,0.2-0.1,0.2c-0.2,0.2-0.1,0.5-0.1,0.8
		c0,0.1,0,0.1,0,0.2c0,0.1,0.2,0.2,0.2,0.3c0.1,0.1,0.3,0.2,0.5,0.2c0,0.1,0,0.1,0,0.1c0.3-0.2,0.7-0.3,0.8-0.7c0,0,0.1,0,0.1,0
		c0-0.1,0-0.2,0.1-0.2c-0.1,0,0,0,0,0c0-0.4-0.1-1,0.2-1.2c0,0,0-0.1,0-0.1c0.2-0.3,0.4-0.6,0.6-0.9c0.1,0,0.3-0.1,0.3-0.2
		c0.1,0,0.2,0,0.3-0.1c0.5-0.1,1.2-0.1,1.6,0.1c0,0.1,0.1,0.1,0.1,0.2c0-0.2,0.2-0.3,0.2-0.6c0.1,0,0.3,0,0.5,0
		c0,0.1,0.1,0.2,0.2,0.3c0,0.2-0.2,0.2-0.1,0.5c0,0-0.1,0-0.1,0c0.2,0.8-0.3,1.6-0.1,2.4c0,0.1,0.1,0.1,0.1,0.2
		c0.1,0.1,0.2,0.1,0.2,0.2c0.2,0,0.3-0.1,0.5-0.1c0.4-0.3,0.7-0.7,1-1.1c0-0.1,0-0.3,0.1-0.3c0-0.3,0.2-0.4,0.2-0.8
		c0.1-0.2,0.1-0.4,0.1-0.6c0,0,0-0.1,0.1,0c0-0.2,0-0.6,0.2-0.7c0.1,0,0.2,0.1,0.2,0c0,0.1,0.1,0.1,0.2,0.1c0,0.1,0.1,0.1,0.1,0.2
		c0,0.1,0,0.1,0,0.2c0,0-0.1,0.1-0.1,0.1c-0.1,0.4,0,0.9,0,1.5c0,0,0,0.1-0.1,0.1c0.1,0.1,0.1,0.1,0,0.2c0,0.1,0.1,0,0.1,0.1
		c-0.1,0.1,0,0.3-0.1,0.4c0.1,0,0-0.1,0.1-0.1c0.1-0.4,0.4-0.6,0.5-1.1c0.1-0.1,0.1-0.3,0.3-0.4c0.1-0.3,0.4-0.5,0.7-0.7
		c0.2,0,0.3-0.1,0.4-0.2c0.2,0,0.3,0,0.5,0c0.1,0.1,0.1,0.1,0.3,0.1c0.1,0.1,0.2,0.2,0.4,0.3c-0.1,0.2,0.2,0.4,0,0.5c0,0,0,0,0.1,0
		c0,0,0,0.1-0.1,0.1c0.1,0.2,0,0.3,0.1,0.4c-0.1,0.1,0,0.1-0.1,0.2c0.1,0.2-0.1,0.5,0,0.7c0,0.1-0.1,0-0.1,0.1
		c0,0.2,0.1,0.5,0.2,0.7c0.1,0,0.2,0.1,0.3,0.1c0.2-0.1,0.3-0.2,0.5-0.3c0.1-0.2-0.1-0.4-0.1-0.6c0-0.1-0.1,0-0.1-0.1
		c0.1-0.3,0.1-0.6,0.2-0.9c-0.1-0.3,0.1-0.4,0.2-0.6c0.1-0.2,0.1-0.3,0.2-0.4c0-0.1,0.1-0.1,0.1-0.2c0,0,0.1,0,0.1-0.1
		c0-0.1,0-0.1,0-0.1c0.2,0,0.5-0.3,0.7-0.3c0,0,0.1,0.1,0.2,0.1c0.2,0,0.5,0,0.7,0.1c0.1,0.1,0.4,0.1,0.5,0.3c0.1,0,0.1,0,0.1,0
		c0.1,0.3,0.3,0.3,0.2,0.6c0,0,0.1,0,0.1,0.1c0.1-0.3,0.1-0.5,0-0.8c0.1-0.1,0.1-0.3,0.2-0.5c0.2-0.1,0.2,0,0.5,0
		c0.1,0.3,0.3,0.6,0.1,0.8c0.1,0.4,0,0.9,0,1.3c0,0.5,0.1,0.9,0.1,1.3c0.1,0.4,0,0.8,0.1,1.1c0.1,0,0.2-0.2,0.2-0.3
		c0.4-0.5,0.7-1.1,1.2-1.5c0-0.1,0-0.1-0.1-0.2c0.1-0.3-0.1-0.5-0.1-0.8c0-0.1,0-0.5,0-0.6c0.1,0,0-0.1,0-0.1c0,0,0.1,0,0.1,0
		c0-0.1,0-0.2,0.1-0.3c0.2-0.3,0.5-0.4,0.9-0.5c0.2,0.1,0.3,0.2,0.6,0.2c0,0,0.1,0.1,0,0.1c0,0.1,0.1,0,0.1,0.1
		c0,0.2,0.2,0.3,0.2,0.4c0,0.1,0,0.3-0.1,0.5c-0.1,0-0.1,0.2-0.1,0.3c-0.1,0.2-0.2,0.3-0.3,0.5c0,0-0.1,0-0.1,0
		c0,0.2-0.3,0.3-0.4,0.5c-0.6,0.2,0.1,0.6,0.3,0.9c0,0,0.1,0,0.1,0c0,0.1,0.4,0.1,0.5,0.1c0.5-0.1,1-0.6,1.2-1c0,0,0,0,0.1,0
		c0-0.4,0.4-0.7,0.3-1.1c-0.1-0.1-0.2-0.2-0.2-0.4c-0.2-0.1-0.1-0.4-0.1-0.7c0.1-0.1,0.2-0.2,0.2-0.3c0.1,0,0.1,0.1,0.1,0
		c0.4,0.2,0.6,0.4,0.8,0.9c0.3-0.1,0.6-0.4,0.6-0.7c0.2-0.3,0.4,0,0.7,0.1c-0.1,0.6-0.2,1.4-0.3,2.2c0,0,0,0.1,0,0.1
		c-0.2,0.3-0.2,0.8,0.1,1c0.1,0,0.2,0,0.2,0c0.1-0.1,0.2-0.1,0.3-0.1c0.2-0.2,0.4-0.4,0.5-0.7c0.3-0.3,0.4-0.8,0.5-1.3
		c0-0.4,0.4-0.5,0.3-1c0.1-0.2,0.1-0.3,0.2-0.5c0.3-0.2,0.9,0.3,0.5,0.6c0,0.1,0.1,0,0,0.1c-0.2,0,0,0.4-0.2,0.4c0,0.1,0.1,0,0,0.1
		c-0.1,0.1,0,0.3-0.1,0.4c0.1,0.3-0.1,0.8,0.1,1.1c0,0.1-0.1,0.1,0,0.1c0.1,0,0,0.1,0.1,0.1c0,0.4,0.1,0.7,0.3,0.8
		c0.1,0,0.2,0,0.3-0.1c0-0.1,0.2-0.1,0.3-0.2c0.4-0.1,0.6-0.4,0.7-0.7c0,0,0,0,0.1,0c-0.1-0.3,0-0.7-0.1-1c0,0,0,0,0.1,0
		c-0.1-0.3,0-0.7,0-1c0.1-0.2,0.3-0.4,0.4-0.6c0,0,0.1,0,0.1,0c0.1-0.2,0.5-0.2,0.6-0.2c0.2,0.1,0.4,0.3,0.6,0.4
		c0,0.2,0,0.2,0.1,0.3c-0.1,0.2,0.1,0.5-0.2,0.6c0,0,0,0.3-0.1,0.3c0,0.1,0,0.3-0.2,0.3c0,0.2-0.2,0.3-0.1,0.5
		c-0.1,0-0.2,0.1-0.2,0.3c-0.2,0.1-0.2,0.3-0.3,0.4c0.1,0.2,0.2,0.5,0.5,0.5c0.1,0.3,0.4,0.1,0.6,0.3c0,0,0.2,0,0.1,0
		c0.5,0,0.7-0.4,0.7-0.8c0.3-0.1,0.4,0.1,0.6,0.2c0,0.1,0,0.1,0,0.2c0,0,0,0,0,0.1c0,0-0.1,0.1-0.1,0.1c0,0.3-0.2,0.4-0.3,0.6
		c-0.2,0.1-0.4,0.2-0.6,0.3c-0.4,0-0.9-0.1-1.2-0.3c-0.1,0.1-0.2-0.1-0.2-0.1c-0.1-0.1-0.2-0.1-0.3-0.2c-0.1-0.1-0.2-0.1-0.2-0.2
		c-0.2,0.2-0.3,0.3-0.5,0.4c-0.1,0.2-0.3,0.2-0.5,0.3c-0.2,0.2-0.6,0.1-0.9,0.1c0,0,0-0.1,0-0.1c-0.4-0.2-0.3-0.8-0.7-1
		c0.1-0.1,0.1-0.3,0-0.5c-0.1,0-0.1,0.1-0.1,0.1c0,0.2-0.2,0.3-0.3,0.5c0,0.1,0,0.2-0.1,0.3c0,0.1-0.1,0.1-0.1,0.1
		c0,0.1-0.1,0.2-0.2,0.2c-0.2,0.2-0.3,0.2-0.5,0.3c-0.1,0,0-0.1-0.1,0c-0.2,0.1-0.5-0.1-0.7-0.1c0,0-0.1,0,0,0
		c-0.2-0.1-0.2-0.3-0.3-0.3c0,0,0,0,0,0c-0.2-0.1-0.1-0.4-0.3-0.6c0-0.1,0.1-0.1,0-0.1c0,0,0-0.1,0.1-0.1c0,0-0.1,0,0-0.1
		c0.1-0.3,0.2-1,0.2-1.4c-0.1,0.1-0.3,0.2-0.6,0.2c-0.2,0.3-0.2,0.7-0.4,0.9c0,0.1-0.1,0.2-0.1,0.4c-0.1,0.1-0.2,0.2-0.2,0.4
		c-0.1,0-0.1,0-0.1,0c0,0.1,0,0.2-0.1,0.2c-0.4,0.3-1,0.7-1.6,0.5c-0.3,0.1-0.5-0.2-0.8-0.3c0-0.2-0.2-0.2-0.3-0.3
		c0-0.2-0.2-0.2-0.2-0.3c-0.1,0.2-0.3,0.3-0.4,0.5c0,0-0.1,0-0.1,0c-0.2,0.5-0.6,0.7-0.7,1.2c-0.1,0-0.1,0.1-0.1,0.1
		c0,0,0,0.1,0,0.1c-0.1,0-0.1,0.1-0.2,0.1c-0.3,0.4-0.1,0.9-0.1,1.4c0,0.5,0.1,1,0,1.5c0,0.3,0,0.6-0.1,1c0,0.3-0.2,0.6-0.1,0.9
		c-0.2,0.3-0.3,0.7-0.5,1c0,0.2,0,0.2-0.1,0.3c0,0.3-0.3,0.3-0.5,0.5c-0.2,0-0.2-0.1-0.4-0.1c-0.2-0.1-0.6-0.2-0.6-0.5
		c0,0-0.1,0-0.1,0c0-0.1-0.1-0.2-0.1-0.2c0,0,0.1,0,0-0.1c-0.3-0.4,0-1,0-1.5c0,0,0,0,0.1,0c0.1-0.5,0.4-0.9,0.5-1.4
		c0.1,0,0.1-0.2,0.1-0.3c0.1-0.1,0.1-0.3,0.2-0.4c0.1-0.4,0.4-0.7,0.5-1.2c0.1-0.2,0.3-0.4,0.4-0.6c0,0,0.1,0,0.1,0
		c0.2-0.3,0-0.6,0-1c0-0.2,0.1-0.4,0-0.5c0.1-0.5,0-0.9,0-1.4c-0.2,0.1-0.2,0.4-0.4,0.5c0,0.1-0.1,0.1,0,0.2c-0.1,0-0.1,0.1-0.2,0.1
		c-0.3,0.4-1.1,1-1.8,0.6c-0.1,0-0.1,0-0.1,0c-0.2-0.2-0.5-0.3-0.6-0.6c-0.1,0.1-0.2,0.3-0.3,0.3c-0.1,0-0.2,0-0.2,0.1
		c-0.1,0-0.3,0.1-0.4-0.1c-0.1,0-0.5,0-0.6-0.2c-0.1,0-0.1,0-0.1,0c0-0.3-0.3-0.3-0.3-0.6c-0.1-0.1,0-0.3-0.2-0.3
		c0.1-0.7,0.2-1.2,0.1-1.9c-0.1,0-0.4,0-0.4,0.1c-0.5,0.1-0.6,0.5-1,0.7c0,0.3-0.2,0.4-0.3,0.7c-0.1,0-0.1,0.1-0.1,0.2
		c-0.1,0,0,0-0.1,0c0,0.2-0.2,0.5-0.2,0.7c-0.2,0.3-0.4,0.5-0.4,0.9c-0.1,0.1-0.2,0.1-0.3,0.2c-0.1,0-0.1-0.1-0.2,0
		c-0.1-0.3-0.3-0.3-0.3-0.7c0,0,0-0.1-0.1-0.1c0-0.3,0-0.4,0-0.8c-0.3,0.1-0.2,0.5-0.5,0.7c0,0.3-0.3,0.3-0.4,0.5
		c-0.2,0.1-0.3,0.1-0.4,0.2c-0.6,0.1-0.9-0.3-1.3-0.6c0-0.2-0.2-0.4-0.2-0.5c-0.1,0,0,0.2-0.1,0.1c0,0.2-0.2,0.2-0.2,0.4
		c-0.2,0.1-0.3,0.2-0.4,0.4c-0.4,0.2-0.7,0.6-1.2,0.4c-0.1,0-0.2-0.1-0.4-0.1c0-0.1,0-0.1-0.1-0.1c-0.1-0.2-0.3-0.3-0.5-0.4
		c0,0,0,0.1,0,0.1c-0.1,0.1-0.2,0.1-0.3,0.2c-0.2,0.1-0.3,0.1-0.5,0.2c-0.2,0.1-0.3,0.2-0.5,0.1c-0.1-0.1-0.4-0.2-0.5-0.2
		c0,0,0-0.1-0.1-0.2c-0.1-0.1-0.2-0.1-0.2-0.1c0,0-0.1-0.1-0.1-0.2c0-0.1,0-0.1-0.1-0.2c0-0.1-0.1-0.1-0.1-0.2
		c-0.3,0.3-0.5,0.6-0.7,0.9c-0.2,0-0.1,0.1-0.3,0.1c-0.1,0.4-0.9,0.2-1.2,0.1c-0.1-0.1-0.2-0.2-0.3-0.2c-0.1-0.2-0.3-0.3-0.4-0.5
		c-0.2-0.1-0.2-0.3-0.3-0.6c-0.3,0.2-0.2,0.7-0.5,0.8c0,0.1,0,0.1,0,0.2c-0.1,0-0.1,0.1-0.1,0.2c-0.4,0.2-0.6,0.5-1.1,0.4
		c-0.1-0.1-0.2-0.2-0.4-0.1c-0.2-0.1-0.2-0.2-0.4-0.2c-0.1-0.2-0.2-0.4-0.4-0.5c-0.2-0.4-0.3-0.9-0.1-1.3c0-0.1,0-0.2,0-0.3
		c-0.3,0.1-0.4,0.3-0.7,0.4c-0.2,0.4-0.1,1-0.5,1.3c0.1,0.1-0.1,0.1-0.1,0.2c-0.3,0.1-0.4,0.3-0.7,0.5c-0.1,0-0.5,0.3-0.7,0.1
		c0,0,0,0,0,0c-0.1-0.1-0.4-0.1-0.5-0.1c-0.1-0.1-0.2-0.2-0.3-0.1c-0.3-0.2-0.4-0.5-0.7-0.8c0-0.1,0-0.2,0-0.3c0,0,0,0-0.1,0
		c0-0.4,0-0.6-0.1-0.8c-0.2,0.1-0.3,0.3-0.6,0.4c0,0.2-0.1,0.4-0.1,0.7c-0.1,0.6-0.4,0.9-0.9,1.3c0,0,0,0-0.1,0
		c-0.1,0.3-0.3,0.1-0.6,0.1c-0.2-0.1-0.6-0.4-0.4-0.7c-0.1-0.2,0.1-0.3,0.2-0.4c0,0,0-0.1,0-0.1c0.1-0.1,0.2-0.2,0.4-0.3
		c0,0,0.1-0.1,0.1-0.2c0.1-0.1,0.2-0.1,0.3-0.2c0.1,0,0.1-0.1,0.2-0.1c0-0.1,0.1-0.2,0.2-0.2c0-0.5-0.3-0.9-0.7-1.1
		c-0.5-0.2-0.7,0.1-1,0.3c-0.1-0.2-0.3-0.2-0.4-0.3c0.1-0.4,0.5-0.5,0.8-0.7c0.1-0.3,0.4-0.7,0.2-1.1c0.2-0.5-0.1-1-0.3-1.3
		c-0.2,0-0.4-0.1-0.6-0.2c-0.4,0-0.9,0.1-1.2,0.4c-0.3,0.1-0.5,0.4-0.7,0.5c-0.1,0.3-0.5,0.7-0.1,0.9c0,0.1,0,0.3,0,0.4
		c-0.1,0.1-0.2,0-0.4,0.1c-0.1-0.3-0.3-0.5-0.4-0.7c0-0.2,0.2-0.3,0.2-0.6c0.3-0.5,0.7-1.1,1.3-1.1c0.3-0.2,0.7-0.3,1.1-0.3
		c0,0,0,0,0,0c0.2,0.1,0.5,0.2,0.8,0.2c0,0,0,0,0,0.1c0.4,0.1,0.4,0.4,0.7,0.6c0.1,0.2,0.2,0.5,0.2,0.7c-0.1,0.1-0.1,0.2,0,0.3
		c-0.1,0.1-0.1,0.2,0,0.3c0,0.1,0,0.1,0,0.2c0.1,0.4-0.1,0.8-0.3,1.1c0.2,0,0.3,0.2,0.5,0.2c0,0,0,0,0,0.1c0.1,0,0.1,0.2,0.2,0.2
		c0.1,0.1,0.2,0.3,0.3,0.4c0,0.2,0.2,0.3,0.2,0.4c0.1,0,0.3-0.1,0.4-0.2c0.1-0.1,0.1-0.2,0.2-0.2c0.1,0,0.2-0.1,0.3-0.1
		c0.2-0.2,0.2-0.5,0.5-0.5c0,0,0,0,0-0.1c0.1,0,0.3-0.1,0.4-0.2c0.2,0,0.4,0,0.6-0.1c0.1-0.1,0.2-0.1,0.3-0.1c0.3-0.1,0.6,0,1,0
		c0.2,0.1,0.3,0.3,0.5,0.4c0.1,0.3,0.1,0.4,0.2,0.7c0.2,0,0.3-0.1,0.3-0.2c0.1,0,0.3-0.1,0.3-0.2c0.4-0.1,0.2-0.6,0.3-0.8
		c0.2-0.1,0.3,0,0.5,0.1c0,0,0,0.2,0.1,0.1c-0.1,0.2,0,0.4-0.2,0.5c0.1,0.6-0.2,1.2-0.1,1.7C-35.8,164.4-35.9,164.6-35.7,164.6
		C-35.7,164.7-35.7,164.6-35.7,164.6 M-25.9,161.8c-0.2-0.1-0.4,0.1-0.6,0.1c-0.2,0.1-0.4,0.3-0.6,0.5c0,0.3-0.3,0.4-0.2,0.7
		c0,0,0,0-0.1,0c-0.1,0.5,0,0.9,0,1.4c0.1,0.1,0.2,0.1,0.2,0.3c0.2,0,0.3,0.2,0.5,0.2c0.1,0,0.4-0.2,0.4-0.3
		c0.1-0.1,0.3-0.2,0.3-0.3c0.2-0.1,0.2-0.2,0.3-0.4c0.2-0.2,0.4-0.4,0.4-0.7c0.1-0.1,0.1-0.2,0.1-0.3c0.1-0.1,0.2-0.3,0.2-0.4
		c0.1,0,0.1,0,0.1-0.1c-0.2,0-0.4-0.3-0.5-0.6C-25.6,161.9-25.7,161.6-25.9,161.8 M-38.1,162.4c-0.2,0-0.5,0.1-0.7,0.2
		c0,0.2,0,0.2,0.1,0.4c0.1,0,0.2,0,0.2,0.2c0.1,0,0.1,0,0.2,0c0,0,0,0.1,0,0.1c0.2,0,0.2,0.1,0.3,0.1c0.1,0,0.2,0,0.3,0
		c0-0.3-0.1-0.5-0.1-0.7c0,0-0.1,0-0.1,0c0-0.1,0-0.1,0-0.2C-38,162.5-38.1,162.4-38.1,162.4 M-15.9,161.7c-0.1,0.2-0.5,0.3-0.5,0.6
		c-0.2,0-0.1,0.2-0.2,0.3c0,0.4-0.2,0.6-0.2,1.1c0.2,0.1,0.2,0.4,0.3,0.7c0.1,0,0.1,0,0.1,0.1c0.1,0,0.2,0.1,0.2,0.2
		c0.2,0.1,0.3,0.1,0.6,0.1c0.3-0.2,0.6-0.4,0.8-0.6c0-0.1,0.1-0.1,0-0.2c0.4-0.4,0.7-0.8,0.7-1.6c-0.1,0-0.1,0-0.3,0.1
		c0-0.1-0.1-0.1-0.2-0.1c0-0.1-0.1-0.1-0.2-0.2c0.1-0.1,0-0.2,0-0.3c-0.3-0.2-0.7-0.1-1.1-0.2C-15.8,161.7-15.9,161.7-15.9,161.7
		 M-39.3,163.1c-0.1-0.2-0.1-0.4-0.2-0.4c-0.2,0.1-0.4,0.3-0.6,0.5c0,0.1,0,0.1,0.1,0.1c-0.1,0-0.1,0.1-0.1,0.1c0,0.2,0,0.4,0.1,0.5
		c-0.2,0.4,0.3,0.6,0.2,0.9c0.1,0.1,0.2,0.2,0.3,0.3c0.3,0,0.5,0.2,0.9,0.1c0-0.1,0-0.1,0.1-0.1c0.3-0.1,0.5-0.3,0.7-0.5
		c0-0.1,0.1-0.2,0.1-0.3c0-0.1,0-0.2,0.1-0.3c-0.3,0-0.6-0.2-0.9-0.2c0,0,0-0.1,0-0.1c-0.1,0-0.1,0-0.2,0c0-0.1,0-0.1-0.1-0.1
		C-39.1,163.3-39.2,163.2-39.3,163.1 M-11.2,163.1c0.1,0,0.1-0.1,0.1-0.1c0.1-0.1,0.1-0.1,0.1-0.1c0.1-0.1,0.1-0.2,0.2-0.3
		c0,0,0.1,0,0.1,0c0.1-0.1,0-0.3,0.1-0.4c0-0.1,0-0.1,0-0.1c0.1,0,0.1-0.1,0.1-0.2C-11,161.8-11.4,162.5-11.2,163.1 M-14,162.3
		c0,0,0-0.1,0-0.1c0,0-0.1,0-0.1,0C-14.1,162.2-14,162.2-14,162.3 M-13.6,167.7c-0.3,0.6-0.7,1.1-0.8,1.8c0,0-0.1,0-0.1,0.1
		c-0.3,0.8-0.9,1.9-0.3,2.7c0.1,0,0.3,0,0.4,0c0.1-0.1,0-0.2,0.2-0.2c0.3-0.7,0.6-1.3,0.7-2.2c0,0,0-0.1,0.1-0.1
		c-0.1-0.1,0-0.2,0-0.3c0,0-0.1,0-0.1-0.1C-13.5,168.9-13.6,168.3-13.6,167.7C-13.6,167.7-13.6,167.7-13.6,167.7"/>
	<path class="st2" d="M-5.2,148.3c-0.1,0.1,0,0.3,0,0.4c0,0.1-0.1,0.1-0.1,0.2c0,0.4,0.1,1,0.1,1.4c-0.1,0.2,0,0.3,0,0.5
		c0,0.5,0.1,1,0.2,1.4c-0.1,0.2,0,0.6,0.1,0.7c0,0.3,0,0.5,0.1,0.7c-0.1,0.2-0.5,0.3-0.6,0.1c-0.5-0.1-1.3,0.2-1.8,0
		c-0.1,0-0.1,0.1-0.2,0.1c-0.2-0.2-0.4-0.3-0.5-0.5c-0.2-0.1-0.3-0.1-0.4-0.3c-0.2,0-0.3-0.1-0.3-0.3c-0.1,0-0.2-0.1-0.3-0.2
		c-0.7-0.3-1.2-0.8-1.7-1.2c-0.3-0.2-0.5-0.4-0.7-0.6h-0.1c-0.3-0.4-0.8-0.7-1.2-1.2c-0.2-0.1-0.3-0.2-0.4-0.4
		c-0.1,0-0.2-0.1-0.2-0.2c-0.3-0.2-0.5-0.5-0.9-0.7c0-0.1-0.1,0,0-0.1c-0.7-0.7-1.4-1.3-1.9-2.1c-0.3-0.3-0.6-0.6-0.8-0.9
		c-0.4-0.4-0.6-0.9-1.1-1.3c0-0.1,0,0,0-0.1c-0.4-0.3-0.5-0.8-0.9-1.1c-0.1-0.4-0.4-0.6-0.6-0.9c0,0-0.1-0.1-0.1,0
		c-0.1-0.1-0.1-0.2-0.3-0.3c-0.4-0.4-0.8-0.9-1.3-1.2c0,0.4,0.2,0.9,0.2,1.4c0.1,0.1,0.1,0.2,0.1,0.3c0,0,0,0,0,0.1
		c0,0.2,0.1,0.5,0,0.6c0.1,0,0,0.1,0.1,0.1c0,0.4,0.1,0.9,0,1.3c0.1,0.1,0,0.2,0,0.3c0,0.1,0,0.1,0,0.1c0.1,0.1,0,0.1,0,0.1
		c-0.1,0.2-0.1,0.5,0,0.7c0,0.6,0.1,1,0.1,1.4c0.3,0.9,0.5,1.8,0.5,2.9c0,0.1,0.1,0.1,0.1,0.1c0,0.1,0,0.2,0,0.3c0,0.1,0,0.1,0,0.1
		c0.1,0.3,0.1,0.8,0.2,1.1c0,0.1,0.1,0.5,0,0.7c0.1,0.4,0,0.8,0,1.1c0.1,0.1,0.1,0.3,0.1,0.5c0,0.1,0.1,0,0.1,0.1
		c-0.1,0-0.1,0.1-0.1,0.2c-0.9,0.1-2-0.1-2.8,0c-0.7-0.2-1.4,0.2-2,0.2c-0.1,0-0.2-0.1-0.4-0.1c-0.1-0.1-0.2-0.2-0.1-0.5
		c-0.2-0.8-0.3-1.8-0.5-2.7c0-0.4-0.1-0.7,0-1c-0.1-0.1,0-0.4-0.1-0.6c0-0.6-0.2-1.6-0.1-2.1c-0.2-0.8-0.1-1.6-0.2-2.5
		c0-0.2,0-0.8-0.1-1c0,0,0-0.1,0-0.2c0-0.1-0.1,0,0-0.1c0-0.1,0.1-0.1,0-0.2c0.1-0.3,0-0.7-0.1-1c0-0.1,0-0.1,0-0.1
		c-0.1-0.9-0.1-2.5,0-3.4c0,0,0,0,0-0.1c0-0.4,0.1-0.9,0.2-1.3c0-0.4,0.1-1.4,0-2c0.1-0.5,0.2-1.3,0.1-1.8c0-0.5,0-1.1,0-1.7
		c0.1-0.1,0.2-0.2,0.3-0.3c0.2,0,0.4,0.1,0.6,0c0.2,0,0.6,0,0.9-0.1c0.5,0,1.4,0.1,2,0.2c0.7,0.8,1.7,1.4,2.3,2.3c0,0,0,0.1,0.1,0.1
		c0.1,0.3,0.4,0.4,0.4,0.6c0.1,0.1,0.2,0.3,0.3,0.4c0,0.2,0.2,0.2,0.2,0.4c0.3,0.2,0.3,0.6,0.6,0.8c0,0.2,0.2,0.3,0.3,0.5v0.1
		c0.1,0,0.1,0.2,0.2,0.2c0.1,0.1,0.1,0.2,0.2,0.3c0,0.2,0.1,0.3,0.2,0.4c0,0.2,0.1,0.3,0.2,0.3c0.1,0.2,0.2,0.4,0.3,0.5
		c0.2,0.4,0.4,0.7,0.6,1.1c0.2,0.1,0.2,0.3,0.4,0.5c0,0.1,0.1,0.2,0.2,0.3c0,0.1,0.1,0.2,0.2,0.3c0.2,0.4,0.4,0.8,0.7,1.1v0.1
		c0.2,0.2,0.4,0.5,0.6,0.8c0.2,0.1,0.4,0.4,0.5,0.6c0.2,0.1,0.2,0.4,0.5,0.6c0.1,0.4,0.4,0.6,0.6,0.9c0.1,0,0.1,0.1,0.2,0.1
		c0,0.1,0.1,0.1,0.1,0.1c0.2,0.2,0.3,0.4,0.5,0.6c0.2,0.5,0.6,0.7,0.8,1.2c0.3,0.2,0.4,0.5,0.6,0.7c0.1,0.1,0.2,0.1,0.2,0.2
		c0.1,0.1,0.1,0.3,0.2,0.3c0-0.4,0.1-1,0-1.4c0.1-0.8,0.1-1.5-0.1-2.4c0-0.1,0-0.2,0-0.2c-0.1-0.3-0.2-0.9-0.2-1.2c0,0,0-0.1,0-0.1
		c0-0.1,0.1-0.4,0-0.5c0-0.1,0,0,0-0.1c-0.1-0.3,0-0.8-0.1-1c0.1-0.2-0.1-0.6,0-0.9c-0.1-0.5,0-1.7-0.1-2.3c0-0.1,0-0.1,0-0.1
		c-0.1-1.2,0-2.5-0.1-3.7c0-0.2,0-0.4-0.1-0.7c-0.1-0.7-0.2-1.4-0.2-2c0,0,0-0.1-0.1-0.2c0,0,0.1-0.2,0-0.2c0.1-0.2,0.4-0.1,0.6-0.1
		c0.2,0,0.3,0,0.5,0c0.1,0,0.3,0.1,0.4,0.1c1.1,0,2.3,0,3.4,0c0.1,0.1,0.2,0.1,0.3,0.2c0.1,0.2,0.1,0.6,0,0.8c0.1,0.1-0.1,0.2,0,0.4
		c-0.1,0.3,0.1,0.6-0.1,0.8c0.1,0.2,0,0.6,0,0.7c-0.1,0.1-0.1,0.3,0,0.4c-0.1,0.3,0,0.7-0.1,1.1c0.1,0.4,0.1,1,0,1.5
		c-0.1,1.1-0.1,2-0.2,2.9c0,0.1,0.1,0.1,0,0.1c-0.1,1.2,0,2.4-0.1,3.5c0,0.1,0,0.1,0,0.2c0,0.3,0,0.9,0.1,1.3
		C-5.3,145.8-5.3,147-5.2,148.3C-5.3,148.3-5.2,148.3-5.2,148.3"/>
	<path class="st2" d="M-38.6,130.9c0.1,0,0.2,0,0.2-0.1c0.6-0.1,1.1,0.1,1.6,0.2c0.1,0,0.2,0,0.3,0.1c0.2,0,0.4,0.1,0.6,0.2
		c0.1,0,0.1,0,0.2,0c0,0,0.1,0.1,0.1,0.1c0.1,0.1,0.3,0,0.3,0.1c0.6,0.1,1,0.4,1.4,0.7c0.1,0,0.1,0,0.2,0c0,0.1,0.1,0,0.1,0.1
		c0.1,0,0.1,0,0.2,0c0.4,0.4,0.9,0.5,1.2,0.9c0.1,0,0.1,0,0.1,0c0.1,0.1,0.2,0.2,0.3,0.2c0.1,0.2,0.3,0.2,0.4,0.4
		c0.4,0.2,0.6,0.5,0.9,0.8c0.1,0.3,0.4,0.4,0.4,0.8c0.2,0.4,0.4,0.8,0.6,1.3c0,0,0.1,0.1,0.1,0.1c0,0.1,0,0.2,0.1,0.3
		c0.1,0.3,0.2,0.6,0.3,0.9c0,0.1,0,0.2,0.1,0.3c0,0.2,0,0.4,0.1,0.6c0,0.4,0.1,0.7,0.1,1.1c0,0,0,0,0,0.1c0.1,0.1,0,0.5,0.1,0.6
		c0,0.7,0.1,1.4,0,2c-0.1,0.3-0.2,0.6-0.2,1c0,0,0,0.1-0.1,0.1c-0.1,0.7-0.4,1.4-0.6,2.1c0,0.1-0.1,0.1-0.1,0.2c0,0.2,0,0.3-0.1,0.4
		c-0.1,0.1-0.1,0.2-0.2,0.4c0,0.1-0.1,0.2-0.1,0.3c0,0.1-0.1,0.2-0.1,0.3c0,0.1-0.1,0.1-0.2,0.2c0,0.1,0,0.1-0.1,0.2
		c0,0-0.1,0-0.1,0.1c-0.1,0.1,0,0.3-0.2,0.3v0.1c-0.2,0.1-0.1,0.3-0.2,0.4c0,0.1-0.1,0.2-0.1,0.3c-0.2,0.3-0.4,0.7-0.7,0.9
		c0,0,0,0.1,0,0.1c-0.4,0.4-0.8,0.9-1.3,1.2c0,0-0.1,0.1-0.1,0.1c-0.3,0.2-0.6,0.3-0.7,0.6c-0.1,0-0.1,0-0.1,0
		c-0.2,0.1-0.3,0.3-0.5,0.4c-0.7,0.8-1.9,1.2-3.1,1.3c-0.1,0,0-0.1-0.1-0.1c-0.4,0.1-1.4,0.2-2,0.1c-0.1,0-0.2-0.1-0.4-0.1
		c-0.3,0-0.7-0.1-1-0.1c-0.2,0-0.4-0.2-0.6-0.1c-0.6-0.2-1.4-0.4-1.9-0.7c-0.6-0.2-0.9-0.6-1.4-0.8c-0.1-0.2-0.3-0.3-0.4-0.5
		c-0.1,0-0.1,0-0.1,0c0-0.1,0-0.1,0-0.1c-0.2-0.1-0.3-0.3-0.5-0.5c0-0.1,0-0.1,0-0.1c-0.2-0.1-0.2-0.3-0.4-0.4
		c0-0.2-0.1-0.2-0.2-0.4c-0.1-0.1-0.2-0.3-0.3-0.5c-0.1,0-0.1-0.1-0.2-0.2c-0.4-1.1-1-2-1.2-3.3c-0.1-0.1,0-0.4-0.1-0.5
		c0-0.2,0-0.4-0.1-0.6c0-0.5-0.1-0.9-0.1-1.3c0-0.3,0-0.7-0.1-1c0-0.1,0-0.1,0-0.1c-0.1-0.7,0-1.7,0.1-2.5c0-0.1,0-0.3,0-0.4
		c0.1-0.4,0.3-0.7,0.3-1.1c0.1-0.3,0.2-0.9,0.5-1.1c0-0.1,0-0.1,0-0.1c0.4-0.9,0.9-1.7,1.3-2.7c0.1,0,0.2-0.1,0.2-0.3
		c0.5-0.5,0.8-1.1,1.4-1.5c0,0,0.1-0.1,0.1-0.1c0.1,0,0.1,0,0.1,0c0.4-0.3,0.8-0.6,1.1-0.9c0.1,0,0.2-0.1,0.2-0.1
		c0.4-0.1,0.6-0.3,1-0.4c0,0,0,0,0-0.1h0.1c0.4-0.2,0.9-0.3,1.4-0.4c0.2,0,0.4,0,0.5-0.1C-39.5,130.9-39,130.8-38.6,130.9"/>
	<path class="st2" d="M-74.1,144.7c0,0.1,0,0.2,0,0.3c-0.2,0.1,0,0.5-0.1,0.6c0,0.1,0.1,0.1,0.1,0.2c0,0.1-0.1,0.1-0.1,0.1
		c0,0.1,0.1,0,0.1,0.1c0,0.1-0.1,0-0.1,0.1c0,0.1,0,0.2,0,0.3c0,0-0.1,0.1-0.1,0.1c0,0.1,0,0.2,0,0.3c0,0-0.1,0.1-0.1,0.1
		c0,0,0,0,0,0c0,0-0.1,0.1-0.1,0.1c0,0.1,0,0.2,0,0.3c0,0-0.1,0.1-0.1,0.1c0,0,0,0,0,0c0,0-0.1,0.1-0.1,0.1c0,0.1,0,0.2,0,0.4
		c-0.1,0.4-0.1,0.7-0.2,1.2c0,0,0,0,0,0.1c0.5,0.1,0.9,0.3,1.4,0.4c0.6,0.1,1.2,0,1.8,0.1c0.6,0.1,1.3,0,2,0.1
		c0.2,0,0.4,0.1,0.6,0.1c1,0.1,2.1,0.1,3.1,0.1c0.7-0.1,1.3,0.1,2,0c0,0,0.1,0.1,0.2,0c0.5-0.1,1.3-0.1,1.5,0.2
		c0,0.2-0.1,0.2-0.1,0.3c0.1,0.7,0,1.3,0,1.9c0.1,0.2,0,0.5,0.1,0.7c0,0.1-0.1,0.1-0.1,0.2c0,0.1,0.1,0.1,0.1,0.2
		c0,0.1-0.2,0.1-0.2,0.2c-0.1,0-0.2,0-0.3,0.1c-0.6-0.1-1.3-0.1-2.1-0.1c-0.5,0-1,0-1.3,0c-1-0.2-2,0-3-0.1c-0.5-0.1-1-0.1-1.4-0.2
		c0,0-0.1,0-0.1,0c-0.5,0-1.1-0.1-1.7-0.1c-0.2,0-0.5,0-0.7,0c-0.1,0,0,0.1-0.1,0c0,0-0.1-0.1-0.2,0c-1,0.2-2.3,0-3-0.1
		c-0.2,0-0.3,0-0.4,0c-0.3-0.1-0.7-0.1-1-0.2c-0.2-0.2-0.4-0.2-0.5-0.5c-0.1,0-0.1-0.1-0.2-0.1c-0.2-0.7,0.1-1.5-0.1-2.3
		c0.1-1.2,0.1-2.2,0.2-3.3c0.1-1.3,0.1-2.7,0.4-3.9c0-0.1-0.1,0,0-0.1c0.2-0.8,0.1-1.6,0.2-2.4c0,0,0,0,0-0.1
		c0.1-0.7,0.2-1.4,0.2-2.2c0-0.1,0.1-0.2,0.1-0.3c0,0,0,0,0-0.1c0-0.3,0.1-0.7,0.1-1c0.1-0.5,0-1.1,0.1-1.7c0-0.2,0.1-0.3,0.1-0.5
		c0.1-1.1-0.1-2.3,0-3.4c0,0,0-0.1,0-0.1c0,0,0,0,0-0.1c0-0.3,0-0.6,0.1-0.9c0-0.1,0-0.1,0-0.1c0-0.1,0.1-0.1,0-0.1
		c0-0.1-0.1-0.1-0.1-0.2c0-0.1,0-0.2,0.1-0.2c0.3-0.1,0.7,0,0.9-0.1c0.2,0,0.4,0,0.6,0c0.2,0.1,0.6,0,0.9,0c0.3,0,0.7,0,1.1,0
		c0.5,0,0.8-0.1,1,0.2c-0.4,1-0.2,2.5-0.5,3.7c-0.1,0-0.1,0.1-0.1,0.1c0,0.2,0,0.3,0,0.5c0-0.1,0,0,0,0.1c0,0,0,0,0,0
		c0.1,0.1,0,0.2,0,0.3c-0.2,0.1-0.1,0.6-0.3,0.7c0.1,0.6-0.1,0.9-0.1,1.5c0,0.1-0.1,0-0.1,0.1c0,0.2,0.1,0.4,0.1,0.7
		c0,0.3-0.1,0.7-0.1,1c0,0.1-0.1,0.1,0,0.2c-0.1,0.6-0.1,1.1-0.2,1.6c0.1,0.4-0.1,0.7,0,1c-0.2,0.3,0.1,0.7-0.1,1
		c0.1,0.2,0,0.5,0,0.7c0,0-0.1,0.3-0.1,0.3c0,0,0,0,0,0.1c0,0.1,0,0.1,0,0.1c0,0.1-0.1,0.1,0,0.2c-0.1,0.2-0.1,0.3-0.1,0.5
		C-74,144.6-74.1,144.5-74.1,144.7C-74,144.5-74.1,144.7-74.1,144.7"/>
	<path class="st2" d="M-64,129.9C-64,129.9-64,129.9-64,129.9c0.3,0.1,0.5,0,0.7,0.2c0.1,0.1,0.5-0.1,0.7,0.1c0.7,0,1.6-0.2,2.3-0.1
		c0.1,0,0.1,0,0.2-0.1c0.1,0,0.2,0.1,0.3,0.1c0.2,0.4,0.5,0.6,0.7,0.9c0.1,0,0.1,0,0.1,0c0,0.1,0,0,0,0.1c0.4,0.2,0.5,0.6,0.7,0.9
		c0,0,0.1,0.1,0.1,0.1c0.1,0.5,0.4,0.7,0.8,1c0.1,0.2,0.2,0.3,0.3,0.4c0,0.2,0.2,0.3,0.3,0.6c0.2,0.2,0.2,0.6,0.4,0.9
		c0.1-0.1,0.2-0.3,0.3-0.5c0.1-0.1,0.2-0.2,0.3-0.4c0.2-0.2,0.3-0.4,0.4-0.7c0.3-0.2,0.4-0.6,0.6-0.9c0.1-0.1,0.2-0.2,0.3-0.4
		c0.3-0.4,0.6-0.9,0.9-1.2c0-0.1,0-0.1,0-0.2c0.1,0,0.1-0.1,0.2-0.1c0.2,0.1,0.4-0.1,0.6,0c0.4-0.1,1.1-0.2,1.6-0.1
		c0.6,0,1.2,0.1,1.9,0c0.3,0,0.6,0,0.9,0c0.3,0,0.6,0.1,0.8,0c0,0,0.2,0.1,0.2,0c0.1,0.1,0.4,0.2,0.4,0.4c0,0.1-0.2,0.5-0.3,0.5v0.1
		c-0.2,0.1-0.2,0.3-0.5,0.4c0,0.3-0.3,0.2-0.3,0.5c-0.1,0-0.2,0.1-0.2,0.2c-0.4,0.1-0.4,0.5-0.7,0.6c0,0.3-0.3,0.3-0.3,0.5
		c-0.1,0-0.1,0.1-0.1,0.1c-0.1,0.1-0.2,0-0.1,0.2c-0.1,0-0.1,0-0.1,0c-0.3,0.4-0.6,0.8-1,1.1v0.1c-0.1,0-0.2,0.1-0.2,0.2
		c-0.2,0-0.3,0.2-0.5,0.3c0,0.2-0.2,0.2-0.2,0.4c-0.1,0-0.1,0.1-0.2,0.1c-0.1,0.2-0.2,0.3-0.4,0.4c0,0.1,0,0.1,0,0.1
		c-0.1,0-0.1,0.1-0.1,0.1c-0.2,0.4-0.5,0.6-0.6,1.2c-0.1,0,0,0.1-0.1,0.1v0.1c-0.2,0.1-0.3,0.4-0.5,0.5c0,0.1-0.1,0.2-0.2,0.2
		c0,0.2-0.1,0.3,0,0.4c0,0.1-0.1,0-0.1,0.1c0,0.1-0.1,0.2,0,0.3c-0.3,1.1,0.1,2.3,0,3.4c0,0,0,0-0.1,0c0.1,0.3-0.1,0.7,0,1
		c-0.2,0.7,0,1.5,0.1,2.1c0,0.1,0,0.1,0,0.1c0,0.1,0,0.1,0,0.1c-0.1,0.3,0.1,1.2,0,1.6c0.1,0.6-0.1,1.6,0,2.2
		c-0.1,0.2-0.1,0.4-0.1,0.7c-0.1,0.1,0,0.5-0.1,0.6c0,0.1,0,0.4-0.1,0.4c0,0.8,0,1.6-0.1,2.4c-0.1,0.1-0.2,0-0.3,0.1
		c-0.3-0.1-0.9,0-1.1-0.1c-0.4,0.1-0.9,0.2-1.3,0.1c-0.3,0.1-0.8,0-1-0.1c-0.1-0.2,0-0.5-0.1-0.7c0-0.1,0,0,0-0.1c0-0.1,0,0,0-0.1
		c0.1-0.3-0.1-0.9,0-1.2c-0.1-0.2,0-0.3,0-0.4c0-0.1,0.1-0.3,0-0.4c0.1-0.5,0-1.7,0.1-2.3c-0.1,0,0-0.1,0-0.1c0.1-0.3,0-0.8,0.1-1.1
		c0,0,0,0,0-0.1c0.2-1.9,0.1-4.3,0.1-6.3c0,0,0,0,0-0.1c0-0.2,0-0.3,0-0.5c0,0,0,0,0-0.1c0-0.2,0-0.4,0-0.6c0-0.2,0-0.3-0.1-0.5
		c-0.2-0.3-0.5-0.6-0.7-0.9c-0.1-0.1-0.2-0.3-0.3-0.4c0,0-0.1-0.1-0.1-0.1c-0.1-0.2-0.2-0.3-0.4-0.5c-0.1-0.2-0.2-0.4-0.3-0.5
		c-0.1-0.3-0.3-0.4-0.4-0.6c0,0,0-0.1-0.1-0.1c-0.3-0.6-0.8-1-1.1-1.7c-0.2-0.2-0.4-0.5-0.5-0.7c-0.2-0.2-0.3-0.4-0.5-0.6
		c-0.2-0.4-0.5-0.8-0.7-1.2c0,0-0.1-0.1-0.1-0.1c-0.2-0.5-0.4-1-0.7-1.4c0-0.3-0.3-0.5-0.2-0.8C-64.1,130.1-64.1,130-64,129.9"/>
	<path class="st2" d="M-91.5,150.2c0-0.3,0.7-0.4,1.1-0.6c1.3-0.5,1.8-1.7,2-3.3c0.1-1-0.1-2.2-0.1-3.2c0-1.2,0-2.4,0-3.5
		c0-1.1,0.2-2.1,0.3-3c0.3-1.9,0.7-3.9,1.4-5.7c0.3-0.8,0.7-1.7,1-2.5c0.4-0.8,0.7-1.7,1.1-2.4c0.6-0.9,1.4-1.6,2.3-2.3
		c0.9-0.8,1.8-1.3,2.8-1.8c2.2-0.9,5-0.8,7.8-1.2c0.7-0.1,1.4-0.2,2-0.3c0.6-0.1,1.2-0.1,1.9-0.1c1.3-0.1,2.7-0.4,4.1-0.3
		c2.8,0.1,5.1,0.8,7.6,1.4c2.4,0.6,5,1.3,7.5,1.5c2.4,0.2,5,0.5,7.3-0.7c0-0.4-0.4-0.5-0.6-0.7c-0.2-0.2-0.4-0.5-0.5-0.8
		c-0.9-2.1,0.6-6.1,3.1-5.2c0.6,0.2,0.9,0.7,1.4,1.2c0.4,0.7,0.2,1.5,0,2.4c-0.3,1-0.5,1.8-1.3,2.2c0.1,0.3,0.4,0.5,0.1,0.7
		c0.5,0.1,0.8,0.7,1.2,0.8c0.5,0.1,1.1,0,1.7,0c1.7,0.1,3.2,0.3,5,0.1c0.7-0.1,1.3-0.3,2-0.4c3.4-0.5,7-0.9,10.3-1.6
		c1.3-0.3,2.6-0.7,3.9-0.9c1.6-0.3,3.3-0.4,5-0.6c4.3-0.5,8.8-0.8,11.3,1.5c0.2,0.2,0.5,0.4,0.8,0.6c0.7,0.5,1.1,0.9,1.5,1.7
		c0.4,0.9,0.8,1.4,1.1,2.5c0.1,0.5,0.2,1,0.3,1.5c0.1,1,0.2,2.1,0.2,3c0,1.7-0.3,3.7-0.6,5.1c0,0.2-0.1,0.4-0.2,0.6
		c-0.1,0.8-0.1,1.8-0.1,2.7c-0.1,2.8,0.7,5.1,1.7,7.3c0.6,0.3,1,0.8,1.5,1.1c0.1,0.1,0.3-0.1,0.6,0c0.1,0.1,0.1,0.3,0.2,0.4
		c0.4,0.1,0.8,0.3,1.1,0.5c-0.1,0.4-0.3,0.5-0.5,0.8c-0.4,0-0.7,0-0.9-0.1c-1.5,0.6-3,1.5-3.1,3.3c0,0.6,0.2,1.3,0.3,1.9
		c0.2,1.3,0.3,2.6,0.6,3.9c0.4,1.3,0.2,2.8,0.4,4.1c0.3,1.9,0.7,3.9,0.8,6c0.1,1.3-0.2,2.5-0.4,3.8c-0.2,1.3-0.6,2.5-1,3.6
		c-0.9,2.2-2,4.2-4.2,5.2c-0.7,0.3-1.6,0.4-2.4,0.6c-0.8,0.2-1.7,0.4-2.5,0.6c-1.7,0.4-3.4,0.3-5.4,0.4c-1.9,0.1-3.6-0.3-5.3-0.6
		c-1.7-0.3-3.2-0.9-4.7-1.3c-3.1-0.8-5.7-2.7-9.1-3c-0.9-0.1-1.9-0.1-2.8-0.1c-2.9-0.1-5.3,0.4-7.6,1.3c0.4,0.6,0.8,1.3,0.9,2.1
		c0.4,1.7,0,3.8-0.9,4.8c-0.6,0.7-1.6,1.1-3,0.8c-0.8-0.2-1.5-1-1.7-1.9c-0.3-1.5,0.2-3.3,0.7-4.4c0.2-0.5,0.5-0.8,1-1.1
		c-2.6-1.2-5.8-1-9.1-0.9c-3.2,0-6.4-0.1-9.8,0c-3.1,0.1-6-0.1-8.9,0.3c-1.5,0.2-3,0.2-4.5,0.3c-1.6,0.1-3.2-0.1-4.8,0
		c-0.6,0-1.1,0.2-1.7,0.2c-2,0-4.2-1-5.2-2c-0.5-0.6-0.9-1.4-1.3-2.1c-0.6-1.2-1.2-2.1-1.5-3.7c-0.1-0.5-0.2-1-0.3-1.4
		c-0.1-1,0.1-2.1,0.1-3.2c0-1.1,0-2.2,0.1-3.3c0.1-1,0.2-2,0.3-3.1c0.2-2.1,0.5-4.2,0.1-6.2c-0.2-1.1-1.5-1.6-2.2-2.4
		c-0.1-0.1-0.3-0.1-0.5-0.1c0-0.5-0.6-0.5-0.9-0.8C-91.5,150.3-91.6,150.2-91.5,150.2 M-90.1,150.4c0.3,0,0.4-0.2,0.7-0.2
		c0.2-0.2,0.2-0.5,0.3-0.8c-0.4,0.3-0.9,0.4-1.3,0.7C-90.3,150.2-90.2,150.3-90.1,150.4 M-89.4,150.8c0.5,0.1,1,0.3,1.3,0.6
		c0.5,0.5,0.7,1.7,1,2.5c0.8,1.9,0.6,3.9,0.6,6.3c0,1.4,0,2.8,0.1,4.2c0.3,4.4,0.6,8.8,3.8,10.6c2.2,1.3,5.5,0.8,8.6,0.9
		c1.4,0,2.9-0.1,4.4,0c1.4,0.1,2.9,0.2,4.3,0.2c1.4,0,2.9-0.1,4.3-0.2c2.8-0.1,5.8,0.3,8.8,0.2c2.3-0.1,4.4-0.2,6.5,0.1
		c2.3,0.3,4,0.7,5.8,1.5c1.3-0.5,2.6-1,4-1.4c1.5-0.4,2.9-0.6,4.6-0.6c5-0.1,9.2,1.5,13,2.9c0.7,0.2,1.3,0.5,2,0.7
		c1.4,0.4,3.1,0.7,4.6,0.7c1.7,0,3.7,0,5-0.3c0.7-0.1,1.3-0.5,2.1-0.5c0.5,0,1,0.1,1.3,0.1c0.6-0.1,1.8-0.4,2.3-0.6
		c2.1-1.3,3-3.2,4.2-5.2c1.6-2.6,1.7-6,2-9.7c0.1-0.7,0.1-1.5,0.1-2.2c0-1.3-0.5-2.6-0.8-3.8c-0.3-1.2-0.5-2.6-0.6-4.2
		c-0.1-1.5-0.2-3.1,0.3-4.2c0.1-0.1,0.2-0.1,0.1-0.3c0.4-0.5,1-0.8,1.5-1.3c-2.2-0.7-2.8-2.8-3.2-4.9c-0.2-1.2-0.3-2.4-0.3-3.7
		c0-1.2,0.2-2.5,0.2-3.8c0-1.3,0-2.7,0-3.9c0.1-2.3,0.8-4.9,0.1-7.1c-0.3-1-0.8-2-1.5-2.6c-0.7-0.5-1.7-0.6-2.8-0.7
		c-2-0.2-3.6-0.1-5.2,0.1c-0.8,0.1-1.7,0.4-2.5,0.6c-1.6,0.3-3.3,0.4-5,0.7c-3.4,0.6-6.9,1.2-10.1,1.9c-1.7,0.4-3.5,0.5-5.5,0.6
		c-2,0.1-3.9,0-5.4-0.4c-1.1-0.3-2.1-0.9-3.3-1.2c-0.4-0.1-0.9-0.4-1.2-0.4c-0.2,0-0.5,0.3-0.7,0.4c-0.3,0.1-0.6,0.3-0.8,0.3
		c-0.6,0.3-1.1,0.6-1.5,0.7c-0.6,0.2-1.3,0.3-1.9,0.5c-0.7,0.2-1.4,0.3-2.2,0.2c-4.2-0.3-8-1.5-12.2-2.2c-2-0.3-4.2-0.6-6.3-0.9
		c-1.1-0.1-2.2-0.2-3.2-0.4c-1.1-0.2-2.2-0.3-3.3-0.3c-0.7,0-1.3,0.3-2,0.5c-0.7,0.1-1.5,0.2-2.1,0.4c-0.6,0.2-1.1,0.6-1.7,1
		c-1.1,0.7-2.1,1.3-2.9,2.2c-0.4,0.5-0.8,0.9-1.2,1.4c-0.7,1-1.3,2.1-1.8,3.3c-0.5,1.2-1.1,2.4-1.5,3.6c-0.4,1.2-0.7,2.6-1.1,4.1
		c-1,4.3-0.9,9-2.3,12.7c-0.2,0.2-0.6,0.2-0.8,0.4C-89.5,150.8-89.5,150.8-89.4,150.8 M-81.1,123.3c-0.5,0.4-0.9,0.7-1.4,1.1
		c-1.1,1-1.8,1.9-2.4,3.3c-0.6,1.5-1.3,2.9-1.7,4.5c-1,3.4-1.6,6.9-1.2,10.8c0.5-5.1,1.8-10.1,3.8-13.9c0.4-0.8,0.8-1.7,1.3-2.3
		c1.1-1.4,2.1-2.6,3.6-3.6c0.3-0.2,0.8-0.4,1.2-0.7c0.4-0.2,0.8-0.6,1.2-0.7c0.4-0.1,0.9-0.1,1.2-0.3
		C-77.7,121.7-79.8,122.2-81.1,123.3 M-87.8,166c0,0.9-0.2,1.9-0.1,2.8c0.1,1.4,0.4,2.8,0.9,4c0.2,0.5,0.5,1,0.8,1.5
		c0.8,1.4,1.5,2.3,3,3c0.9,0.4,1.9,0.7,2.9,0.8c0.6,0,1.1-0.2,1.7-0.2c1.6-0.1,3.3,0.1,4.9-0.1c1.6-0.1,3.1-0.2,4.5-0.3
		c3.1-0.3,6.2-0.2,9.3-0.3c3.3-0.1,6.1,0.1,9.3,0c2.2-0.1,4.4-0.1,6.5,0.2c0.7,0.1,1.5,0.2,2.1,0.3c0.3,0.1,1.2,0.7,1.4,0.5
		c0.2-0.2-0.6-0.4-0.8-0.5c-0.4-0.1-0.9-0.1-1.3-0.2c-0.6-0.1-1.2-0.4-1.9-0.5c-0.7-0.1-1.4-0.2-2.1-0.3c-2.1-0.2-4.4,0-6.6,0.1
		c-0.9,0-1.8-0.1-2.7-0.1c-1,0-2,0-3-0.1c-1.9-0.2-3.9,0.2-5.7,0.2c-2.6,0-5.2-0.3-8.1-0.3c-0.9,0-1.9-0.1-2.8,0
		c-2,0-4.2,0.3-5.9-0.2c-2.8-0.8-4.1-2.9-4.7-5.8c-0.9-4-0.9-9.2-0.9-13.3C-87.6,160.2-87.8,162.8-87.8,166 M-60.1,122.1
		c0.2,0,0.5,0.2,0.7,0.2c0.8,0.1,1.7,0.2,2.5,0.4c1.1,0.3,2.2,0.5,3.3,0.8c2.2,0.5,4.4,1,6.7,1.2c1.3,0.1,2.7-0.3,3.8-0.7
		c0.5-0.2,0.9-0.4,1.4-0.6c0.4-0.2,1-0.3,1.1-0.8c-3.3,1.6-7.6,1-11,0.3c-2.4-0.5-4.9-1-7.3-1.6c-0.8-0.2-1.6-0.5-2.4-0.6
		c-2.6-0.4-5.6,0.1-8.1,0.3C-66,121.6-62.9,121.6-60.1,122.1 M-42.2,180.2c-0.1,0.2-0.1,0.5-0.1,0.7c-0.1,0.5-0.3,1-0.4,1.5
		c-0.1,1.3,0.1,2.2,0.7,2.7c0.6,0.5,1.3,0.5,2.3,0.5c0.6-0.4,1.1-1,1.2-1.8c-0.3,0.3-0.8,0.3-1.2,0.2c-0.6-0.2-1.4-1.4-1.5-2.1
		c-0.1-1,0.5-1.8,0.8-2.5c-0.2-0.2-0.5-0.3-0.7-0.4C-41.4,179.2-42,179.6-42.2,180.2 M-40.8,121.8c0.2-0.1,0.4-0.2,0.5-0.4
		c-0.7-0.9-1.5-1.8-1.6-3.4C-42.3,119.6-41.8,121.2-40.8,121.8 M-40.3,116.8c0.6,0.1,1.1,1.5,1.1,2.5c0,0.3-0.2,1,0,1.3
		c0.3-0.2,0.6-0.9,0.7-1.5c0.1-0.4,0.3-1.1,0.3-1.5c-0.1-0.8-1-1.7-1.7-1.7c-0.8,0-1.2,0.7-1.5,1.3C-41.1,117-40.9,116.7-40.3,116.8
		 M-40.1,117.8c-0.1-0.2-0.3-0.6-0.5-0.6c-0.6-0.1-0.9,0.8-0.8,1.4c0.1,1,1,2.1,1.5,2.6C-40.1,120.3-39.7,118.8-40.1,117.8
		 M-40.6,181.5c0,0.7,0.7,1.6,1.1,1.8c0.9,0.6,1.2-0.3,1.1-1.2c-0.1-1-0.8-1.9-1.5-2.4C-40.1,180.2-40.6,180.8-40.6,181.5
		 M-39.9,178.8c0.1-0.1,0.2-0.2,0.3-0.3c-0.2,0-0.2-0.2-0.4-0.2c-0.2,0.1-0.3,0.1-0.5,0.3C-40.3,178.6-40.1,178.7-39.9,178.8
		 M-38.6,180c-0.1-0.5-0.3-1-0.7-1.2C-39.7,179.3-38.8,179.6-38.6,180 M-39.1,178c0.7-0.2,1.6-0.6,2.5-0.9c0.9-0.3,1.9-0.3,2.9-0.5
		c1-0.2,1.9-0.2,2.9-0.2c1,0,2.1,0,3,0.2c2.4,0.3,4.6,1.4,6.7,2.3c1.1,0.4,2.2,0.8,3.3,1.1c2.3,0.6,4.8,1.4,7.5,1.5
		c1.3,0,2.6,0,3.9-0.1c1.5-0.1,2.6-0.3,3.9-0.6c2.1-0.4,4.1-0.8,5.3-2c0.7-0.8,1.2-2,1.8-3.1s0.9-2.3,1.2-3.6
		c0.2-1.3,0.5-2.7,0.4-4.1c-0.1-1.4-0.1-2.8-0.5-4.2c0,1.4-0.2,2.5-0.3,3.7c-0.2,2.2-0.9,4.4-1.8,6.1c-0.4,0.7-0.8,1.4-1.2,2.1
		c-0.8,1.1-2.1,2.7-3.3,3.3c-0.7,0.3-1.9,0.7-2.7,0.8c-0.4,0-0.8-0.1-1.2,0c-0.6,0.1-1.2,0.3-1.8,0.4c-1.9,0.4-3.7,0.5-5.5,0.4
		c-2.5-0.2-4.8-0.7-7-1.6c-2.1-0.8-4.3-1.6-6.7-2.1c-2.4-0.5-5-0.8-7.8-0.6c-2.1,0.2-3.7,1.1-5.6,1.6c0,0.1-0.1,0.1,0,0.1
		C-39.2,178-39.1,178-39.1,178z M-29.9,124.4c0.5,0,1.1,0,1.6,0c1.7-0.1,3.5-0.5,4.9-0.9c2.7-0.7,5.4-0.9,8.1-1.4
		c2.3-0.5,4.5-0.5,6.5-1c2.6-0.6,5.4-0.8,8.2-0.4c0-0.2-0.3-0.3-0.5-0.3c-2.5-1-6.5-0.7-9.3-0.3c-1.5,0.2-2.9,0.3-4.3,0.5
		c-1.4,0.2-2.7,0.6-4.1,0.9c-2.6,0.5-5.5,0.9-8.3,1.3c-2.9,0.4-5.7,1.1-8.6,0.9c-0.5,0-1.1-0.2-1.6-0.2c0,0-0.1,0,0,0
		C-35.1,124.5-32.2,124.5-29.9,124.4 M3.6,126.1c0,0.7-0.1,1.5-0.1,2.3c0,0.7-0.3,1.4-0.3,2.2c0,0.7-0.1,1.4-0.1,2
		c0,0.5-0.1,1,0,1.5c0.1,1.7-0.2,3.2-0.2,4.9c0,0.7,0,1.6,0.1,2.2c0.3,1.8,0.7,3.9,1.7,5c0.3,0.4,0.7,0.7,1.2,0.8
		c-1-1.8-2-4.2-2.2-6.8c-0.2-2.8,0.5-5.5,0.7-8.3c0.2-2.8,0-5.4-1.1-7.7C3.4,124.9,3.6,125.5,3.6,126.1 M6.1,148.1
		c-0.3,0.1-1.1,0.8-1.3,1.2c-0.2,0.4-0.2,0.9-0.2,1.2c0.5-1,1.7-1.4,2.7-2C6.8,148.3,6.7,147.8,6.1,148.1 M8.6,148.3
		c-0.3-0.2-0.9-0.7-1.2-0.4C7.7,148,8.2,148.3,8.6,148.3"/>
</g>
</svg>
