<?xml version="1.0" encoding="utf-8"?>
<!-- Generator: Adobe Illustrator 19.0.0, SVG Export Plug-In . SVG Version: 6.00 Build 0)  -->
<svg version="1.1" id="Capa_1" xmlns="http://www.w3.org/2000/svg" xmlns:xlink="http://www.w3.org/1999/xlink" x="0px" y="0px"
	 viewBox="95 -84.4 489.9 469" style="enable-background:new 95 -84.4 489.9 469;" xml:space="preserve">
<style type="text/css">
	.st0{fill:#e8e8e8;}
</style>
<path class="st0" d="M578.9,109.6c5.4-4.7,7.4-12.2,5.1-19c-2.3-6.8-8.4-11.5-15.5-12.1L426.2,67.9c-6.6-0.5-12.4-4.6-15-10.7
	l-56.5-131c-2.8-6.6-9.3-10.8-16.5-10.7c-7.1,0.1-13.5,4.4-16.3,11l-54.1,132c-2.5,6.1-8.2,10.3-14.8,11l-142,13.2
	C104,83.5,98,88.3,95.8,95.1c-2.1,6.8,0,14.3,5.5,18.9l108.8,92.2c5,4.3,7.3,11,5.9,17.5l-31.3,139.2c-1.6,7,1.2,14.2,7,18.4
	c5.8,4.1,13.6,4.4,19.7,0.6l121.3-75c5.6-3.5,12.7-3.5,18.4-0.2l122.7,72.8c6.1,3.6,13.9,3.3,19.6-1c5.7-4.3,8.4-11.6,6.7-18.5
	l-33.8-138.6c-1.6-6.4,0.5-13.2,5.5-17.6L578.9,109.6z"/>
</svg>
